<?xml version="1.0" encoding="UTF-8"?>
<svg id="Layer_1" data-name="Layer 1" xmlns="http://www.w3.org/2000/svg" viewBox="0 0 200 200">
  <defs>
    <style>
      .cls-1 {
        fill: none;
        stroke: #fff;
        stroke-linecap: round;
        stroke-linejoin: round;
        stroke-width: 2.84px;
      }

      .cls-2 {
        fill: #ebb542;
      }
    </style>
  </defs>
  <circle class="cls-2" cx="100" cy="100" r="100"/>
  <g id="g2467">
    <g id="g2399">
      <path id="path2381" class="cls-1" d="M41.32,140.54h102.42"/>
      <path id="path2385" class="cls-1" d="M66.93,166.15h51.21"/>
      <path id="path2387" class="cls-1" d="M77.6,166.15l4.27-12.8"/>
      <path id="path2389" class="cls-1" d="M107.47,166.15l-4.27-12.8"/>
      <path id="rect2391" class="cls-1" d="M143.74,93.6v53.34c0,3.55-2.85,6.4-6.4,6.4H47.72c-3.55,0-6.4-2.85-6.4-6.4v-64.01c0-3.55,2.85-6.4,6.4-6.4h38.41"/>
    </g>
    <path id="rect2433" class="cls-1" d="M101.07,33.85h51.21c3.55,0,6.4,2.85,6.4,6.4v38.41c0,3.55-2.85,6.4-6.4,6.4h-32.01l-12.8,12.8v-12.8h-6.4c-3.55,0-6.4-2.85-6.4-6.4v-38.41c0-3.55,2.85-6.4,6.4-6.4Z"/>
    <g id="g2452">
      <path id="rect2436" class="cls-1" d="M92.53,93.6c3.55,0,6.4,2.85,6.4,6.4v2.13c0,3.55-2.85,6.4-6.4,6.4s-6.4-2.85-6.4-6.4v-2.13c0-3.55,2.85-6.4,6.4-6.4Z"/>
      <path id="rect2439" class="cls-1" d="M79.73,127.74v-2.13c0-5.91,4.76-10.67,10.67-10.67h4.27c5.91,0,10.67,4.76,10.67,10.67v2.13"/>
    </g>
    <path id="path2444" class="cls-1" d="M109.6,48.79h34.14"/>
    <path id="path2446" class="cls-1" d="M109.6,59.46h34.14"/>
    <path id="path2448" class="cls-1" d="M109.6,70.13h34.14"/>
  </g>
</svg>