<?xml version="1.0" encoding="UTF-8"?>
<svg id="Layer_1" data-name="Layer 1" xmlns="http://www.w3.org/2000/svg" viewBox="0 0 436.44 371.06">
  <defs>
    <style>
      .cls-1 {
        fill: #87ceb8;
      }

      .cls-2 {
        fill: #48bd9f;
      }

      .cls-3 {
        fill: #ebf6f1;
      }

      .cls-4 {
        fill: #fff;
      }

      .cls-5 {
        fill: #5f6f76;
      }

      .cls-6 {
        fill: #566970;
      }

      .cls-7 {
        fill: #b2b5b9;
      }

      .cls-8 {
        fill: #d86b60;
      }

      .cls-9 {
        fill: #818a91;
      }

      .cls-10 {
        fill: #74c8af;
      }

      .cls-11 {
        fill: #a9daca;
      }

      .cls-12 {
        fill: #78838a;
      }

      .cls-13 {
        fill: #31545c;
      }

      .cls-14 {
        fill: #9da3a8;
      }

      .cls-15 {
        fill: #dbefe7;
      }

      .cls-16 {
        fill: #67757c;
      }

      .cls-17 {
        fill: #c7cacc;
      }

      .cls-18 {
        fill: #8a9298;
      }

      .cls-19 {
        fill: #e0e0e1;
      }

      .cls-20 {
        fill: #c68834;
      }

      .cls-21 {
        fill: #eab542;
      }

      .cls-22 {
        fill: #cc2036;
      }

      .cls-23 {
        fill: #f3d69d;
      }

      .cls-24 {
        fill: #132f35;
      }

      .cls-25 {
        fill: #cae8dd;
      }

      .cls-26 {
        fill: #a81e2a;
      }
    </style>
  </defs>
  <g>
    <rect class="cls-12" x="24.05" y="97.78" width="388.33" height="265.95" rx="7.28" ry="7.28"/>
    <path class="cls-6" d="M405.11,97.78h-187.21v265.95h187.21c4,0,7.28-3.27,7.28-7.28V105.06c0-4-3.27-7.28-7.28-7.28Z"/>
  </g>
  <g>
    <path class="cls-13" d="M33.95,106.72v227.65h368.55V106.72H33.95Z"/>
    <path class="cls-24" d="M218.22,106.72v227.65h184.27V106.72h-184.27Z"/>
  </g>
  <g>
    <rect class="cls-1" x="46.58" y="119.35" width="343.29" height="202.39"/>
    <rect class="cls-2" x="218.22" y="119.35" width="171.64" height="202.39"/>
  </g>
  <path class="cls-1" d="M357.32,235.53c-3.06,0-5.91.93-8.28,2.51-1.07-9.83-9.4-17.49-19.52-17.49-10.85,0-19.64,8.79-19.64,19.64,0,.57.04,1.13.09,1.69-1.37-.53-2.85-.84-4.41-.84-6.72,0-12.17,5.45-12.17,12.17s5.45,12.17,12.17,12.17h51.77c8.25,0,14.93-6.68,14.93-14.93s-6.68-14.93-14.93-14.93Z"/>
  <path class="cls-11" d="M123.43,198.56c-3.3,0-6.37,1-8.93,2.71-1.16-10.6-10.14-18.86-21.05-18.86-11.7,0-21.18,9.48-21.18,21.18,0,.61.04,1.22.09,1.82-1.48-.58-3.08-.9-4.76-.9-7.25,0-13.13,5.88-13.13,13.13s5.88,13.13,13.13,13.13h55.82c8.89,0,16.1-7.21,16.1-16.1s-7.21-16.1-16.1-16.1Z"/>
  <path class="cls-25" d="M146.45,224.24c-2.68,0-5.17.81-7.24,2.19-.94-8.6-8.22-15.29-17.07-15.29-9.48,0-17.17,7.69-17.17,17.17,0,.5.03.99.07,1.47-1.2-.47-2.49-.73-3.86-.73-5.88,0-10.64,4.77-10.64,10.64s4.77,10.64,10.64,10.64h45.26c7.21,0,13.05-5.84,13.05-13.05s-5.84-13.05-13.05-13.05Z"/>
  <g>
    <path class="cls-15" d="M205.25,193.77s1.26,118.03-60.94,127.97h73.91v-134.36l-12.97,6.39Z"/>
    <path class="cls-25" d="M231.19,193.77s-1.26,118.03,60.94,127.97h-73.91v-134.36l12.97,6.39Z"/>
  </g>
  <g>
    <g>
      <path class="cls-20" d="M218.22,179.09c-7.33,0-13.29,6.59-13.29,14.68,0,17.92,9.97,32.39,10.39,33l2.9,4.15,2.9-4.15c.42-.61,10.39-15.08,10.39-33,0-8.1-5.96-14.68-13.29-14.68Z"/>
      <g>
        <path class="cls-21" d="M218.22,182.62c-5.38,0-9.75,5-9.75,11.15,0,11.89,4.82,22.37,7.69,27.57l2.06,3.73,2.06-3.73c2.87-5.19,7.69-15.68,7.69-27.57,0-6.15-4.38-11.15-9.75-11.15Z"/>
        <path class="cls-23" d="M218.22,214.98c2.42-5.26,5.04-12.89,5.04-21.2,0-3.55-2.26-6.44-5.04-6.44s-5.04,2.89-5.04,6.44c0,8.32,2.62,15.94,5.04,21.2Z"/>
      </g>
    </g>
    <g>
      <g>
        <polygon class="cls-12" points="230.09 180.65 206.36 180.65 208.88 171.74 227.56 171.74 230.09 180.65"/>
        <g>
          <polygon class="cls-5" points="227.56 171.74 221.63 171.74 222.68 180.65 230.09 180.65 227.56 171.74"/>
          <polygon class="cls-18" points="210.82 171.74 208.63 180.65 215.57 180.65 216.07 171.74 210.82 171.74"/>
        </g>
      </g>
      <g>
        <path class="cls-22" d="M200.24,125.91s-29.29,7.24-19.74,57.93c0,0,3.8-22.41,23.2-17.65l-3.47-40.28Z"/>
        <path class="cls-8" d="M200.57,129.75l-.33-3.84s-29.29,7.24-19.74,57.93c0,0,.44-2.56,1.76-5.77-3.89-34.25,11.79-45.27,18.31-48.33Z"/>
        <path class="cls-26" d="M195.19,165.86c2.43-.5,5.25-.47,8.51.33l-3.47-40.28s-5.65,1.4-11.18,7.27c2.01,13.1,4.24,24.22,6.14,32.68Z"/>
      </g>
      <g>
        <path class="cls-22" d="M236.21,125.91s29.29,7.24,19.74,57.93c0,0-3.8-22.41-23.2-17.65l3.47-40.28Z"/>
        <path class="cls-8" d="M235.88,129.75l.33-3.84s29.29,7.24,19.74,57.93c0,0-.44-2.56-1.76-5.77,3.89-34.25-11.79-45.27-18.31-48.33Z"/>
        <path class="cls-26" d="M241.25,165.86c-2.43-.5-5.25-.47-8.51.33l3.47-40.28s5.65,1.4,11.18,7.27c-2.01,13.1-4.24,24.22-6.14,32.68Z"/>
        <path class="cls-22" d="M200.57,129.75l-.33-3.84s-5.65,1.4-11.18,7.27c.28,1.84.57,3.64.86,5.4,3.77-4.98,7.98-7.57,10.65-8.83h0Z"/>
        <path class="cls-22" d="M236.21,125.91l-.33,3.84h0c2.67,1.25,6.88,3.85,10.65,8.83.29-1.76.58-3.56.86-5.4-5.53-5.87-11.18-7.27-11.18-7.27Z"/>
      </g>
      <g>
        <path class="cls-19" d="M218.22,0s-26.57,42.38-26.57,86.92,11.04,79.72,11.04,79.72h31.07s11.04-35.17,11.04-79.72S218.22,0,218.22,0Z"/>
        <g>
          <path class="cls-4" d="M205.11,166.64h8.98s-2.94-35.17-2.94-79.72S218.22,0,218.22,0c0,0-22.43,42.38-22.43,86.92s9.32,79.72,9.32,79.72Z"/>
          <path class="cls-17" d="M218.22,0s8.38,42.38,8.38,86.92-3.48,79.72-3.48,79.72h10.64s11.04-35.17,11.04-79.72S218.22,0,218.22,0Z"/>
        </g>
      </g>
      <g>
        <rect class="cls-18" x="202.69" y="166.64" width="31.07" height="7.51"/>
        <rect class="cls-16" x="223.11" y="166.64" width="10.64" height="7.51"/>
        <rect class="cls-7" x="205.11" y="166.64" width="9.01" height="7.51"/>
      </g>
      <g>
        <path class="cls-22" d="M221.63,149.78c0,16.32-3.41,37.41-3.41,37.41,0,0-3.41-21.09-3.41-37.41s1.53-23.87,3.41-23.87,3.41,7.55,3.41,23.87Z"/>
        <path class="cls-26" d="M218.22,125.91v61.27s3.41-21.09,3.41-37.41-1.53-23.87-3.41-23.87Z"/>
      </g>
      <g>
        <path class="cls-22" d="M218.22,0s-7.99,12.74-15.21,31.6h30.41c-7.22-18.85-15.21-31.6-15.21-31.6Z"/>
        <path class="cls-26" d="M218.22,0s2.52,12.74,4.79,31.6h10.41c-7.22-18.85-15.21-31.6-15.21-31.6Z"/>
        <path class="cls-8" d="M214.18,31.6c1.92-18.85,4.05-31.6,4.05-31.6,0,0-6.74,12.74-12.84,31.6h8.79Z"/>
      </g>
      <g>
        <circle class="cls-9" cx="218.22" cy="67.81" r="18.37" transform="translate(103.56 265.48) rotate(-77.15)"/>
        <path class="cls-7" d="M199.85,67.81c0,7.64,4.67,14.19,11.31,16.96.06-11.94.61-23.68,1.39-34.44-7.37,2.39-12.7,9.31-12.7,17.48Z"/>
        <path class="cls-16" d="M224.98,50.73c.88,10.47,1.52,21.85,1.61,33.44,5.94-3.04,10.01-9.22,10.01-16.36,0-7.76-4.81-14.39-11.61-17.08Z"/>
        <circle class="cls-16" cx="218.22" cy="67.81" r="14.73"/>
        <path class="cls-9" d="M211.2,80.76c.13-9.09.53-18.02,1.07-26.42-5.17,2.29-8.78,7.46-8.78,13.47,0,5.59,3.11,10.45,7.7,12.95Z"/>
        <path class="cls-6" d="M225.32,54.9c.61,8,1.05,16.45,1.21,25.07,3.88-2.65,6.42-7.11,6.42-12.16,0-5.56-3.08-10.4-7.63-12.91Z"/>
        <g>
          <circle class="cls-10" cx="218.22" cy="67.81" r="13.23" transform="translate(101.82 264.46) rotate(-76.64)"/>
          <g>
            <path class="cls-25" d="M226.42,78.19c2.72-2.15,4.57-5.34,4.96-8.97l-14.57-14.57c-3.63.39-6.82,2.24-8.97,4.96l18.58,18.58Z"/>
            <path class="cls-25" d="M219.8,80.95c1.59-.19,3.1-.66,4.46-1.36l-17.81-17.81c-.7,1.37-1.17,2.87-1.36,4.46l14.71,14.71Z"/>
          </g>
        </g>
      </g>
    </g>
  </g>
  <g>
    <g>
      <path class="cls-19" d="M5.39,343.18h425.66c2.98,0,5.39,2.42,5.39,5.39v17.1c0,2.98-2.42,5.39-5.39,5.39H5.39c-2.98,0-5.39-2.42-5.39-5.39v-17.1c0-2.98,2.42-5.39,5.39-5.39Z"/>
      <path class="cls-17" d="M431.05,343.18h-213.15v27.88h213.15c2.98,0,5.39-2.41,5.39-5.39v-17.1c0-2.98-2.41-5.39-5.39-5.39Z"/>
    </g>
    <g>
      <path class="cls-14" d="M175.58,343.18h85.28v8.55c0,2.98-2.42,5.39-5.39,5.39h-74.5c-2.98,0-5.39-2.42-5.39-5.39v-8.55h0Z"/>
      <path class="cls-18" d="M217.91,343.18v13.94h37.56c2.98,0,5.39-2.41,5.39-5.39v-8.55h-42.96Z"/>
    </g>
  </g>
  <path class="cls-15" d="M109.32,292.49c-16.16,0-29.25,13.1-29.25,29.25h58.5c0-16.16-13.1-29.25-29.25-29.25Z"/>
  <path class="cls-15" d="M167.77,286.77c-19.26,0-34.88,15.62-34.88,34.88h69.76c0-19.26-15.62-34.88-34.88-34.88Z"/>
  <path class="cls-3" d="M134.68,300.62c-11.67,0-21.13,9.46-21.13,21.13h42.25c0-11.67-9.46-21.13-21.13-21.13Z"/>
  <path class="cls-3" d="M76.07,307.64c-7.79,0-14.1,6.31-14.1,14.1h28.2c0-7.79-6.31-14.1-14.1-14.1Z"/>
  <path class="cls-15" d="M288.35,298.31c-12.94,0-23.43,10.49-23.43,23.43h46.86c0-12.94-10.49-23.43-23.43-23.43Z"/>
  <path class="cls-15" d="M361.74,306.14c-8.57,0-15.51,6.94-15.51,15.51h31.02c0-8.57-6.94-15.51-15.51-15.51Z"/>
  <path class="cls-3" d="M328.45,291.93c-16.46,0-29.81,13.35-29.81,29.81h59.62c0-16.46-13.35-29.81-29.81-29.81Z"/>
  <path class="cls-3" d="M261.59,301.66c-11.09,0-20.08,8.99-20.08,20.08h40.17c0-11.09-8.99-20.08-20.08-20.08Z"/>
  <g>
    <path class="cls-3" d="M218.22,291.73c-16.57,0-30.01,13.44-30.01,30.01h60.02c0-16.57-13.44-30.01-30.01-30.01Z"/>
    <path class="cls-15" d="M218.22,291.73c-.11,0-.21.01-.32.02v29.99h30.33c0-16.57-13.44-30.01-30.01-30.01Z"/>
  </g>
</svg>