<?xml version="1.0" encoding="UTF-8"?>
<svg id="Layer_1" data-name="Layer 1" xmlns="http://www.w3.org/2000/svg" viewBox="0 0 309.06 202">
  <defs>
    <style>
      .cls-1 {
        fill: #fff;
        opacity: .85;
      }

      .cls-2 {
        fill: #315997;
        fill-rule: evenodd;
      }
    </style>
  </defs>
  <circle class="cls-1" cx="101" cy="101" r="101"/>
  <path class="cls-2" d="M43.55,162.91v-64.38c0-8.97,7.28-16.25,16.25-16.25h.35v-23.67c0-19.75,16.03-35.78,35.78-35.78h10.13c19.76,0,35.79,16.03,35.79,35.78v23.67h.35c8.96,0,16.24,7.28,16.24,16.25v64.38c0,8.97-7.28,16.25-16.24,16.25H59.8c-8.97,0-16.25-7.28-16.25-16.25ZM107.2,148.7v-13.44c.72-.45,1.4-.99,2.03-1.62,4.55-4.55,4.55-11.93,0-16.47-4.54-4.55-11.92-4.55-16.47,0-4.54,4.54-4.54,11.92,0,16.47.63.63,1.31,1.17,2.03,1.62v13.44c0,3.13,2.54,5.66,5.67,5.66h1.08c3.13,0,5.66-2.53,5.66-5.66ZM128.31,82.29v-21.99c0-13.21-10.72-23.92-23.92-23.92h-6.78c-13.2,0-23.92,10.71-23.92,23.92v21.99h54.62Z"/>
</svg>