<?xml version="1.0" encoding="UTF-8"?>
<svg xmlns="http://www.w3.org/2000/svg" viewBox="0 0 168.38 62.14" width="268">
  <defs>
    <style>
      .cls-1 {
        fill: #fff;
      }
    </style>
  </defs>
  <g id="Core_Logo" data-name="Core Logo">
    <path class="cls-1" d="M104.12,1.44l-.02,6.52h-1.29l-.45-2.79c-.16-1.04-.71-1.79-1.66-2.27-.95-.48-2.14-.72-3.58-.72s-2.59.54-3.53,1.61c-.94,1.07-1.41,2.34-1.41,3.79,0,1.08.31,1.99.94,2.72.63.73,1.3,1.29,2.03,1.67.72.38,2.02.99,3.9,1.82,1.51.68,2.75,1.34,3.75,1.99.99.65,1.83,1.46,2.53,2.47.7.99,1.04,2.17,1.04,3.51,0,1.21-.25,2.37-.74,3.47-.5,1.11-1.21,2.09-2.11,2.92-.91.84-2,1.5-3.26,1.97-1.26.48-2.64.71-4.13.71-1.92,0-3.6-.14-5.04-.42-1.44-.28-2.53-.6-3.27-.95v-7.34h1.35l.4,2.86c.23,1.56.89,2.67,1.99,3.31,1.1.64,2.73.96,4.89.96,1.3,0,2.41-.29,3.36-.87.94-.59,1.65-1.35,2.13-2.3.48-.95.72-1.96.72-3.03,0-1.52-.61-2.77-1.84-3.74-1.22-.98-3.11-1.99-5.65-3.04-1.35-.57-2.48-1.13-3.39-1.69-.91-.56-1.69-1.34-2.33-2.35-.65-1.01-.97-2.25-.97-3.71,0-1.64.43-3.05,1.29-4.26.86-1.2,1.99-2.11,3.39-2.72,1.4-.62,2.89-.93,4.45-.93.74,0,1.54.05,2.4.13.86.09,1.66.2,2.4.34.74.15,1.33.27,1.75.38Z"/>
    <path class="cls-1" d="M55.63,28.85c-.47-.05-.79-.26-.98-.63-.18-.36-.6-1.49-1.26-3.38l-5.73-16.77c-.28-.85-.59-1.75-.93-2.69-.33-.94-.6-1.69-.79-2.26-.19-.57-.43-1.32-.71-2.24h-2.64l-11.14,25.92c-.37.84-.68,1.37-.85,1.64-.15.22-.4.44-.84.44-.58,0-.85-.46-.95-.66-.19-.36-.6-1.49-1.26-3.38l-5.73-16.77c-.28-.85-.59-1.75-.93-2.69-.33-.94-.6-1.69-.79-2.26-.19-.57-.43-1.32-.71-2.24h-2.64L5.63,26.81c-.37.84-.66,1.38-.85,1.64-.2.26-.46.4-.79.45l-1.55.19v1.17h8.69v-1.17l-2.11-.28c-.34-.06-.59-.11-.76-.17-.17-.05-.3-.15-.38-.27-.08-.13-.13-.32-.13-.57s.13-.73.38-1.43l2.85-6.84h10.84c.84,2.44,1.45,4.27,1.85,5.51.4,1.24.59,2.02.59,2.35,0,.44-.1.76-.31.96-.21.2-.59.34-1.16.42l-2.05.3v1.19h16.21v-1.17l-2.1-.28c-.34-.06-.6-.11-.77-.17-.17-.05-.3-.15-.38-.27-.08-.13-.13-.32-.13-.57s.13-.73.38-1.43l2.85-6.84h10.84c.84,2.44,1.45,4.27,1.85,5.51.4,1.24.6,2.02.6,2.35,0,.44-.1.76-.31.96-.21.2-.59.34-1.16.42l-2.04.3v1.19h10.77v-1.2l-1.73-.21ZM11.72,17.52l5.15-12.82c1.55,4.3,3.01,8.57,4.37,12.82h-9.52ZM37.55,17.52l5.16-12.82c1.55,4.3,3,8.57,4.37,12.82h-9.52Z"/>
    <g>
      <path class="cls-1" d="M56.83,8.9c4.53-4.08,11.2-4.92,16.59-2.09,3.45,1.81,5.99,4.85,7.16,8.56.01.04.05.07.09.07.04,0,.07-.02.09-.05,1.56-3.27,1.79-6.98.63-10.42,0,0,0,0,0,0-.14-.47-.35-.73-.45-.84l-.21-.21c-5.07-4.56-12.64-5.2-18.4-1.55-2.47,1.56-4.43,3.79-5.66,6.43-.02.04,0,.09.03.12.04.03.09.03.13,0Z"/>
      <path class="cls-1" d="M71.61,30.77c-5.8-1.88-9.86-7.24-10.11-13.33-.16-3.89,1.21-7.62,3.84-10.49.03-.03.04-.07.02-.11-.02-.04-.05-.05-.09-.05-3.61.28-6.93,1.94-9.34,4.66,0,0,0,0,0,0-.34.36-.46.66-.51.81l-.08.29c-1.42,6.67,1.82,13.55,7.86,16.71,2.59,1.36,5.49,1.94,8.39,1.69.05,0,.08-.04.09-.09,0-.05-.02-.09-.07-.1Z"/>
      <path class="cls-1" d="M86.08,15.08c-.12-2.91-1.07-5.72-2.73-8.12-.03-.04-.08-.05-.12-.03-.04.02-.07.06-.06.11,1.27,5.96-1.34,12.16-6.49,15.42-3.29,2.08-7.19,2.76-10.99,1.92-.04,0-.08,0-.11.04-.02.04-.02.08,0,.11,2.05,2.99,5.15,5.03,8.71,5.76h0c.48.11.81.07.95.03l.29-.08c6.49-2.11,10.82-8.34,10.55-15.16Z"/>
    </g>
  </g>
  <g id="Signature">
    <path class="cls-1" d="M5.8,39.52c.1.31.18.57.24.76.06.19.15.45.27.77s.22.63.32.92l1.95,5.71c.22.64.37,1.03.43,1.15.06.12.17.19.33.21l.59.07v.41h-3.67v-.41l.7-.1c.19-.03.32-.08.39-.15.07-.07.11-.17.11-.33,0-.11-.07-.38-.2-.8-.14-.43-.35-1.05-.63-1.89h-3.7l-.98,2.34c-.09.24-.13.4-.13.49s.01.15.04.2c.03.04.07.07.13.09.06.02.14.04.26.06l.72.09v.4H0v-.4l.53-.06c.11-.02.2-.06.27-.15.07-.09.16-.27.29-.56l3.8-8.83h.9ZM4.94,40.81l-1.76,4.37h3.25c-.47-1.45-.96-2.91-1.49-4.37Z"/>
    <path class="cls-1" d="M12.76,43.45l.02,4.18c0,.46,0,.79.03.99.02.2.06.33.12.39.06.06.16.09.3.1l.65.06v.36h-2.85v-.36l.69-.09c.11-.01.19-.04.23-.08.04-.04.06-.11.08-.22.02-.1.03-.32.05-.66,0-.22.03-.91.06-2.06,0-.28.02-.76.03-1.44.02-.68.03-1.11.03-1.3,0-.12,0-.2-.04-.25-.03-.05-.1-.08-.22-.1l-.63-.1v-.36h2.37l2.08,5.4,2.14-5.4h2.47v.36l-.65.07c-.14.01-.24.05-.29.12-.05.07-.09.19-.1.37-.01.17-.02.5-.02.98v3.21c0,.47,0,.79.02.96.02.17.05.29.09.36.05.07.13.11.25.13l.74.09v.36h-3.44v-.36l.68-.08c.19-.02.31-.1.36-.23.07-.27.11-1.16.11-2.65,0-.84-.02-1.65-.05-2.45l-2.35,5.82h-.58c-.71-2.15-1.5-4.2-2.38-6.13Z"/>
    <path class="cls-1" d="M24.73,46.21v2.84l2.31-.11c.16-.02.27-.06.33-.13s.14-.22.23-.45l.31-.77.4.09-.34,1.84h-5.59v-.35l.66-.08c.18-.02.3-.1.34-.24.05-.14.07-.54.09-1.2.02-.66.03-1.22.03-1.67,0-.51-.02-1.19-.06-2.06-.02-.44-.05-.71-.09-.8-.04-.1-.13-.15-.29-.17l-.68-.08v-.36h5.23v1.91h-.4l-.14-.78c-.04-.24-.1-.39-.17-.46-.07-.07-.21-.1-.41-.11l-1.77-.07v2.74l1.12-.03c.25,0,.4-.05.47-.13.07-.08.12-.24.15-.47l.09-.55h.38v2.79h-.38l-.08-.52c-.03-.23-.08-.39-.15-.46-.07-.08-.23-.12-.48-.12l-1.12-.03Z"/>
    <path class="cls-1" d="M32.58,47.62c0,.38,0,.64.01.81,0,.17.03.3.05.38.02.09.06.15.11.19.06.04.13.07.23.08l.62.07v.36h-3.36v-.36l.66-.08c.2-.02.32-.1.35-.24.07-.32.11-1.25.11-2.8,0-.77-.03-1.65-.09-2.62,0-.17-.03-.29-.07-.36-.04-.06-.13-.11-.26-.12l-.69-.08v-.35h3.25c.47,0,.9.06,1.28.18.38.12.69.3.91.54.22.24.34.53.34.87,0,.48-.16.88-.49,1.2-.33.32-.75.54-1.28.65l2.18,2.8c.09.12.17.2.24.24.06.04.15.07.24.09l.46.07v.36h-1.86c-.26-.41-.53-.82-.82-1.24-.29-.42-.61-.84-.95-1.28-.34-.43-.63-.78-.87-1.05.7-.08,1.18-.27,1.46-.58.28-.3.42-.69.42-1.16,0-.36-.15-.65-.46-.87-.3-.23-.7-.34-1.18-.34h-.53v4.61Z"/>
    <path class="cls-1" d="M38.61,42.52h3.4v.36l-.65.08c-.14.02-.23.06-.29.13-.06.07-.09.2-.11.37-.01.17-.02.49-.02.96v3.21c0,.37,0,.63,0,.79,0,.15.02.28.04.39.03.1.06.17.1.2.04.03.11.05.2.07l.75.09v.36h-3.44v-.36l.65-.08c.19-.02.31-.1.35-.24,0-.03.03-.14.05-.33.02-.19.04-.47.05-.84,0-.38.02-.86.02-1.45,0-.63-.02-1.4-.06-2.31-.02-.44-.05-.71-.08-.81-.03-.09-.12-.15-.28-.16l-.7-.08v-.36Z"/>
    <path class="cls-1" d="M49.83,42.66v1.94h-.41l-.2-.92c-.04-.22-.15-.38-.3-.5-.23-.17-.66-.25-1.27-.25-.58,0-1.06.14-1.44.42-.38.28-.65.65-.83,1.12-.17.47-.26.99-.26,1.56,0,.42.05.81.15,1.17.1.36.25.69.47.99.21.3.48.53.81.7.32.17.71.25,1.15.25s.84-.05,1.13-.16c.29-.11.48-.28.59-.53l.46-1.09.37.09-.31,1.83c-.3.13-.64.23-1,.3-.37.06-.78.1-1.23.1-.79,0-1.44-.12-1.96-.36-.52-.24-.93-.55-1.22-.93-.29-.38-.48-.78-.59-1.18-.1-.4-.16-.79-.16-1.17,0-.51.12-1.04.35-1.6.24-.56.65-1.04,1.24-1.44.59-.41,1.36-.61,2.33-.61.37,0,.76.02,1.16.07.4.05.73.11.99.2Z"/>
    <path class="cls-1" d="M55.66,42.46c.06.21.26.79.6,1.73l1.41,3.97c.14.38.24.63.3.75.06.12.16.18.27.2l.43.05v.37h-3.08v-.37l.61-.07c.15-.02.25-.05.29-.1.04-.04.06-.11.06-.22,0-.17-.19-.75-.57-1.75h-2.6l-.62,1.5c-.07.15-.1.27-.1.36s.02.14.05.16c.03.02.11.04.24.05l.63.07v.36h-2.4v-.36l.39-.05c.09-.02.17-.05.22-.12.06-.06.13-.19.21-.37l2.76-6.16h.91ZM54.83,43.6l-1.2,2.84h2.21c-.31-.89-.64-1.84-1.01-2.84Z"/>
    <path class="cls-1" d="M60.63,43.12c-.09-.08-.21-.13-.35-.15l-.62-.1v-.35h2.33l4.17,5.35c-.02-.32-.03-.73-.04-1.23,0-.5-.02-1.03-.03-1.6-.01-.57-.02-.94-.03-1.12-.02-.34-.04-.56-.05-.66-.01-.1-.04-.18-.08-.22-.04-.04-.11-.07-.22-.08l-.75-.09v-.35h2.84v.35l-.65.09c-.12.01-.2.05-.25.11-.05.05-.08.18-.09.39-.02.2-.03.52-.03.96l-.04,5.17h-.8c-1.46-2.11-3.03-4.13-4.7-6.05l.04,4.1c0,.5,0,.83,0,.97,0,.14.04.25.09.33.05.07.15.12.31.14l.69.1v.36h-2.87v-.36l.68-.09c.11-.01.19-.04.23-.08.04-.04.07-.11.08-.22.01-.1.03-.32.05-.66.04-.73.06-1.42.06-2.08,0-1.48,0-2.46.02-2.92Z"/>
    <path class="cls-1" d="M77.68,39.52c.1.31.18.57.24.76.07.19.16.45.27.77.11.32.22.63.31.92l1.95,5.71c.22.64.37,1.03.43,1.15.06.12.17.19.33.21l.59.07v.41h-3.67v-.41l.7-.1c.19-.03.33-.08.4-.15.07-.07.1-.17.1-.33,0-.11-.07-.38-.2-.8-.14-.43-.35-1.05-.63-1.89h-3.7l-.98,2.34c-.09.24-.13.4-.13.49s.02.15.05.2c.03.04.07.07.13.09.06.02.15.04.27.06l.72.09v.4h-2.97v-.4l.53-.06c.11-.02.2-.06.27-.15.07-.09.16-.27.29-.56l3.8-8.83h.9ZM76.81,40.81l-1.76,4.37h3.25c-.46-1.45-.96-2.91-1.49-4.37Z"/>
    <path class="cls-1" d="M86.75,42.6v1.85h-.45l-.14-.91c-.06-.44-.48-.66-1.24-.66-.34,0-.6.11-.8.34-.2.23-.3.51-.3.85,0,.19.04.35.11.47.07.12.18.24.31.34.14.1.26.18.37.23.11.05.35.15.71.31.29.12.55.23.78.33.22.11.42.23.6.36.18.13.33.31.45.53.12.22.18.47.18.75,0,.42-.12.81-.37,1.18-.25.37-.58.65-1,.84-.42.2-.88.29-1.37.27-.45-.02-.87-.05-1.24-.11-.37-.06-.68-.14-.92-.22v-2.08h.45l.15.85c.07.38.23.66.5.83.26.17.65.25,1.13.25s.84-.13,1.08-.39c.25-.26.37-.59.37-1,0-.21-.04-.38-.12-.52-.08-.14-.19-.26-.35-.37-.16-.11-.35-.21-.57-.3-.23-.09-.47-.19-.73-.29-.33-.13-.61-.26-.84-.41-.23-.14-.43-.34-.59-.61-.16-.26-.24-.6-.24-1.02,0-.6.23-1.07.69-1.4.47-.33,1.03-.5,1.7-.5.48,0,1.04.07,1.68.21Z"/>
    <path class="cls-1" d="M92.76,42.6v1.85h-.45l-.14-.91c-.07-.44-.48-.66-1.25-.66-.34,0-.6.11-.8.34-.2.23-.3.51-.3.85,0,.19.04.35.11.47.07.12.18.24.31.34.13.1.26.18.37.23.11.05.35.15.71.31.29.12.55.23.78.33.22.11.43.23.61.36.18.13.33.31.45.53.12.22.18.47.18.75,0,.42-.12.81-.37,1.18s-.58.65-1,.84c-.42.2-.88.29-1.37.27-.45-.02-.86-.05-1.24-.11-.37-.06-.68-.14-.92-.22v-2.08h.45l.14.85c.06.38.23.66.5.83.27.17.65.25,1.14.25s.84-.13,1.08-.39c.25-.26.37-.59.37-1,0-.21-.04-.38-.12-.52-.08-.14-.19-.26-.35-.37-.15-.11-.35-.21-.57-.3-.23-.09-.47-.19-.73-.29-.33-.13-.61-.26-.84-.41-.23-.14-.43-.34-.58-.61-.16-.26-.24-.6-.24-1.02,0-.6.23-1.07.7-1.4.46-.33,1.03-.5,1.69-.5.48,0,1.04.07,1.68.21Z"/>
    <path class="cls-1" d="M98.15,42.39c.58,0,1.11.08,1.58.25.47.17.87.41,1.19.72.32.31.57.69.75,1.14.17.46.26.97.26,1.54s-.09,1.08-.26,1.54c-.17.45-.42.83-.75,1.14-.33.31-.72.55-1.19.71-.47.17-1,.25-1.58.25-.77,0-1.44-.15-2.01-.43-.57-.29-1-.71-1.31-1.26-.3-.55-.45-1.2-.45-1.95,0-.55.09-1.06.26-1.52.17-.46.42-.84.75-1.16.32-.31.72-.56,1.19-.72.47-.17.99-.25,1.57-.25ZM98.15,49.19c.36,0,.69-.07.99-.22.3-.15.55-.36.77-.63.21-.27.38-.6.5-.99.12-.38.17-.82.17-1.31s-.06-.94-.17-1.33c-.12-.39-.28-.72-.5-.99-.22-.27-.48-.48-.77-.62-.3-.14-.63-.21-.99-.21-.48,0-.9.13-1.27.38-.37.25-.65.62-.85,1.1-.21.48-.31,1.04-.31,1.68s.1,1.19.31,1.67c.2.48.49.85.85,1.1.37.26.79.38,1.27.38Z"/>
    <path class="cls-1" d="M108.9,42.66v1.94h-.41l-.2-.92c-.04-.22-.15-.38-.3-.5-.23-.17-.66-.25-1.27-.25s-1.06.14-1.44.42c-.38.28-.65.65-.83,1.12-.17.47-.26.99-.26,1.56,0,.42.05.81.15,1.17.1.36.25.69.47.99.21.3.48.53.81.7.32.17.71.25,1.15.25s.84-.05,1.13-.16c.29-.11.48-.28.59-.53l.46-1.09.37.09-.31,1.83c-.3.13-.64.23-1,.3-.37.06-.78.1-1.24.1-.79,0-1.44-.12-1.96-.36-.52-.24-.93-.55-1.22-.93-.29-.38-.48-.78-.58-1.18-.1-.4-.16-.79-.16-1.17,0-.51.12-1.04.35-1.6.24-.56.65-1.04,1.24-1.44.59-.41,1.36-.61,2.33-.61.37,0,.76.02,1.16.07.4.05.73.11.99.2Z"/>
    <path class="cls-1" d="M110.17,42.52h3.4v.36l-.65.08c-.14.02-.23.06-.29.13-.06.07-.09.2-.11.37-.01.17-.02.49-.02.96v3.21c0,.37,0,.63,0,.79,0,.15.02.28.04.39.03.1.06.17.1.2.04.03.11.05.2.07l.75.09v.36h-3.44v-.36l.65-.08c.19-.02.31-.1.35-.24,0-.03.03-.14.05-.33.02-.19.04-.47.05-.84,0-.38.02-.86.02-1.45,0-.63-.02-1.4-.06-2.31-.02-.44-.05-.71-.08-.81-.03-.09-.12-.15-.28-.16l-.7-.08v-.36Z"/>
    <path class="cls-1" d="M118.53,42.46c.06.21.26.79.6,1.73l1.41,3.97c.14.38.24.63.3.75.06.12.16.18.27.2l.43.05v.37h-3.08v-.37l.61-.07c.15-.02.25-.05.29-.1.04-.04.06-.11.06-.22,0-.17-.19-.75-.57-1.75h-2.6l-.62,1.5c-.07.15-.1.27-.1.36s.02.14.05.16c.03.02.11.04.24.05l.63.07v.36h-2.4v-.36l.39-.05c.09-.02.17-.05.22-.12.06-.06.13-.19.21-.37l2.76-6.16h.91ZM117.7,43.6l-1.2,2.84h2.21c-.31-.89-.64-1.84-1.01-2.84Z"/>
    <path class="cls-1" d="M125.05,43.06v4.56c0,.47,0,.79.02.97.02.17.04.29.09.37.05.07.13.11.25.12l.97.09v.36h-3.89v-.36l.89-.1c.11-.02.19-.04.24-.08.04-.04.08-.09.1-.17.02-.04.03-.16.05-.35.02-.19.03-.46.05-.82.01-.36.02-.83.02-1.42,0-1.37-.03-2.43-.09-3.17l-1.65.05c-.16,0-.27.04-.32.12-.05.07-.1.23-.15.47l-.14.69-.41-.03.14-1.85h6.42l.12,1.85-.41.03-.12-.69c-.04-.23-.09-.39-.13-.46-.05-.08-.16-.12-.33-.12l-1.7-.05Z"/>
    <path class="cls-1" d="M128.5,42.52h3.4v.36l-.65.08c-.14.02-.23.06-.29.13-.05.07-.09.2-.1.37-.02.17-.02.49-.02.96v3.21c0,.37,0,.63,0,.79,0,.15.02.28.05.39.03.1.06.17.1.2.04.03.11.05.2.07l.75.09v.36h-3.44v-.36l.66-.08c.19-.02.3-.1.35-.24,0-.03.03-.14.04-.33.02-.19.04-.47.05-.84.01-.38.02-.86.02-1.45,0-.63-.02-1.4-.06-2.31-.03-.44-.05-.71-.08-.81-.03-.09-.13-.15-.28-.16l-.7-.08v-.36Z"/>
    <path class="cls-1" d="M136.55,42.39c.58,0,1.11.08,1.58.25.47.17.87.41,1.19.72.33.31.58.69.75,1.14.17.46.26.97.26,1.54s-.08,1.08-.26,1.54c-.17.45-.42.83-.75,1.14-.32.31-.72.55-1.19.71-.47.17-1,.25-1.58.25-.77,0-1.44-.15-2.01-.43-.57-.29-1-.71-1.3-1.26-.3-.55-.45-1.2-.45-1.95,0-.55.09-1.06.26-1.52.17-.46.43-.84.75-1.16.33-.31.72-.56,1.2-.72.47-.17.99-.25,1.56-.25ZM136.55,49.19c.36,0,.69-.07.99-.22.3-.15.56-.36.77-.63.22-.27.38-.6.5-.99.12-.38.17-.82.17-1.31s-.06-.94-.17-1.33c-.12-.39-.28-.72-.5-.99-.22-.27-.48-.48-.77-.62-.3-.14-.62-.21-.99-.21-.48,0-.9.13-1.26.38-.37.25-.65.62-.86,1.1-.2.48-.31,1.04-.31,1.68s.1,1.19.31,1.67c.21.48.49.85.86,1.1.37.26.79.38,1.26.38Z"/>
    <path class="cls-1" d="M142.35,43.12c-.09-.08-.21-.13-.35-.15l-.62-.1v-.35h2.33l4.17,5.35c-.02-.32-.03-.73-.04-1.23,0-.5-.02-1.03-.03-1.6,0-.57-.02-.94-.03-1.12-.02-.34-.04-.56-.05-.66-.02-.1-.04-.18-.08-.22-.04-.04-.12-.07-.22-.08l-.75-.09v-.35h2.85v.35l-.66.09c-.12.01-.2.05-.24.11-.04.05-.08.18-.09.39-.02.2-.03.52-.03.96l-.04,5.17h-.8c-1.46-2.11-3.03-4.13-4.7-6.05l.04,4.1c0,.5,0,.83,0,.97,0,.14.04.25.09.33.05.07.16.12.31.14l.69.1v.36h-2.88v-.36l.69-.09c.11-.01.19-.04.23-.08.04-.04.07-.11.08-.22.02-.1.03-.32.05-.66.04-.73.06-1.42.06-2.08,0-1.48,0-2.46.02-2.92Z"/>
    <path class="cls-1" d="M157.89,42.39c.58,0,1.11.08,1.58.25.47.17.87.41,1.19.72.33.31.58.69.75,1.14.18.46.26.97.26,1.54s-.08,1.08-.26,1.54c-.17.45-.42.83-.75,1.14-.32.31-.72.55-1.19.71-.47.17-1,.25-1.58.25-.77,0-1.44-.15-2.01-.43-.57-.29-1-.71-1.31-1.26s-.45-1.2-.45-1.95c0-.55.09-1.06.26-1.52.17-.46.43-.84.75-1.16.33-.31.72-.56,1.2-.72.47-.17.99-.25,1.56-.25ZM157.89,49.19c.36,0,.69-.07.99-.22.3-.15.56-.36.77-.63.22-.27.38-.6.5-.99.12-.38.17-.82.17-1.31s-.06-.94-.17-1.33c-.12-.39-.29-.72-.5-.99-.22-.27-.47-.48-.77-.62-.3-.14-.62-.21-.99-.21-.48,0-.9.13-1.26.38-.37.25-.65.62-.86,1.1-.2.48-.31,1.04-.31,1.68s.1,1.19.31,1.67c.21.48.49.85.86,1.1.37.26.79.38,1.26.38Z"/>
    <path class="cls-1" d="M165.61,46.21v1.43c0,.36,0,.62,0,.78,0,.16.02.28.05.38.03.1.06.17.1.2.04.03.11.05.2.06l.9.09v.36h-3.59v-.36l.67-.08c.18-.02.3-.1.34-.24.07-.26.11-1.12.11-2.58,0-.65-.02-1.44-.06-2.35-.03-.44-.05-.71-.08-.81-.03-.1-.13-.15-.28-.16l-.69-.08v-.35h5.1v1.9h-.4l-.13-.78c-.04-.24-.1-.4-.18-.47-.07-.07-.21-.11-.41-.11l-1.66-.08v2.77l1.05-.03c.23,0,.38-.05.44-.13.06-.08.11-.24.14-.48l.09-.55h.41v2.79h-.41l-.07-.5c-.03-.17-.05-.3-.08-.38-.03-.08-.08-.13-.17-.17-.08-.04-.21-.06-.39-.06l-1.02-.03Z"/>
    <path class="cls-1" d="M5.39,51.8c.77,0,1.46.12,2.07.35.6.23,1.12.58,1.54,1.02.42.45.74.99.97,1.63.22.64.33,1.36.33,2.16s-.11,1.52-.33,2.17c-.22.64-.54,1.19-.97,1.63-.43.45-.94.79-1.56,1.03-.61.23-1.3.35-2.05.35s-1.43-.12-2.04-.35c-.61-.24-1.13-.58-1.56-1.03-.42-.45-.75-1-.97-1.63-.22-.64-.33-1.36-.33-2.17s.11-1.52.33-2.16c.22-.64.54-1.18.97-1.63.42-.45.94-.79,1.55-1.02.61-.23,1.29-.35,2.06-.35ZM5.39,61.6c.52,0,.99-.11,1.42-.33.43-.22.79-.53,1.1-.94.3-.41.54-.9.71-1.48.17-.58.25-1.21.25-1.88s-.09-1.31-.26-1.89c-.17-.58-.4-1.07-.7-1.47-.3-.39-.67-.71-1.1-.93-.43-.23-.91-.34-1.43-.34s-.99.11-1.42.34c-.43.22-.8.54-1.11.94-.31.4-.54.89-.71,1.46-.17.57-.25,1.2-.25,1.89s.08,1.31.25,1.88c.16.57.4,1.06.71,1.47.31.41.68.73,1.11.95.43.22.9.33,1.41.33Z"/>
    <path class="cls-1" d="M13.91,60.03c0,.38,0,.64.02.81,0,.17.02.3.05.38.02.09.06.15.12.19.05.04.13.07.23.08l.62.07v.36h-3.36v-.36l.66-.08c.2-.02.32-.1.35-.24.07-.32.11-1.25.11-2.8,0-.77-.03-1.65-.09-2.62,0-.17-.03-.29-.07-.36-.05-.06-.13-.11-.26-.12l-.69-.08v-.35h3.25c.47,0,.9.06,1.28.18.38.12.69.3.91.54.22.24.33.53.33.87,0,.48-.16.88-.49,1.2-.33.32-.75.54-1.28.65l2.18,2.8c.09.12.17.2.24.24.07.04.15.07.25.09l.46.07v.36h-1.87c-.26-.41-.53-.82-.82-1.24-.29-.42-.61-.84-.95-1.28-.34-.43-.62-.78-.87-1.05.7-.08,1.19-.27,1.47-.58.28-.3.42-.69.42-1.16,0-.36-.15-.65-.46-.87-.31-.23-.7-.34-1.18-.34h-.54v4.61Z"/>
    <path class="cls-1" d="M23.15,55.47v4.56c0,.47,0,.79.02.97.01.17.04.29.09.37.05.07.13.11.25.12l.97.09v.36h-3.89v-.36l.89-.1c.11-.02.19-.04.24-.08.05-.04.08-.09.11-.17.01-.04.03-.16.05-.35.02-.19.04-.46.05-.82.02-.36.02-.83.02-1.42,0-1.37-.03-2.43-.09-3.17l-1.65.05c-.16,0-.27.04-.32.12-.05.07-.09.23-.15.47l-.14.69-.41-.03.14-1.84h6.42l.12,1.84-.41.03-.13-.69c-.04-.23-.09-.39-.13-.47-.05-.08-.16-.12-.33-.12l-1.7-.05Z"/>
    <path class="cls-1" d="M29.41,58.13h3.49c0-.6-.03-1.2-.06-1.8-.02-.34-.04-.57-.05-.67-.01-.11-.04-.18-.08-.22-.04-.04-.11-.06-.22-.08l-.71-.08v-.36h3.41v.36l-.66.05c-.11,0-.19.03-.24.06-.06.03-.09.09-.12.19-.03.09-.04.22-.05.39,0,.17,0,.45,0,.86v3.21c0,.37,0,.63,0,.79,0,.16.02.29.05.39.03.1.06.17.1.2.04.03.11.05.2.07l.75.09v.36h-3.44v-.36l.66-.08c.19-.02.3-.1.35-.23.08-.21.12-1.06.12-2.56h-3.49v1.33c0,.37,0,.63,0,.79,0,.16.02.28.05.39.03.11.06.17.1.2.04.03.11.05.2.07l.75.1v.36h-3.44v-.36l.66-.08c.19-.02.3-.1.35-.24,0-.03.03-.14.04-.33.02-.19.04-.47.05-.84.01-.38.02-.86.02-1.45,0-.63-.02-1.4-.06-2.31-.03-.44-.05-.71-.08-.8-.03-.09-.13-.15-.28-.17l-.7-.08v-.36h3.4v.36l-.65.05c-.11,0-.18.03-.24.06-.05.03-.09.09-.11.19-.03.09-.04.23-.05.39,0,.17,0,.46,0,.86v1.3Z"/>
    <path class="cls-1" d="M40.21,54.8c.58,0,1.11.08,1.58.25.47.17.87.41,1.19.72.32.31.57.69.75,1.14.17.46.26.97.26,1.54s-.09,1.08-.26,1.54c-.17.45-.42.83-.75,1.14-.33.31-.72.55-1.19.71-.47.17-1,.25-1.58.25-.77,0-1.44-.15-2.01-.43-.57-.29-1-.71-1.31-1.26-.3-.55-.45-1.2-.45-1.95,0-.55.09-1.06.26-1.52.17-.46.42-.84.75-1.16.32-.31.72-.56,1.19-.72.47-.16.99-.25,1.57-.25ZM40.21,61.6c.36,0,.69-.07.99-.22.3-.15.56-.36.77-.63.21-.27.38-.6.5-.99.12-.38.17-.82.17-1.31s-.06-.94-.17-1.33c-.12-.39-.28-.72-.5-.99-.22-.27-.48-.48-.77-.62-.3-.14-.63-.21-.99-.21-.48,0-.9.13-1.27.38-.37.26-.65.62-.85,1.1-.21.48-.31,1.04-.31,1.68s.1,1.19.31,1.67c.2.48.49.85.85,1.1.37.26.79.38,1.27.38Z"/>
    <path class="cls-1" d="M47.91,58.26c1.24-.1,1.86-.62,1.86-1.58,0-.26-.07-.49-.22-.69-.15-.2-.35-.35-.59-.45-.24-.1-.5-.15-.77-.15h-.62v4.64c0,.44,0,.74.02.91.01.17.04.29.09.37.05.08.13.12.24.14l.94.12v.36h-3.62v-.36l.67-.09c.18-.02.29-.1.33-.24.08-.25.12-1.12.12-2.61,0-.76-.02-1.53-.06-2.32-.02-.44-.05-.7-.08-.8-.04-.09-.13-.15-.27-.16l-.7-.08v-.35h3.35c.67,0,1.24.15,1.73.45.48.3.72.71.72,1.25,0,.37-.13.7-.38,1.01-.25.31-.61.56-1.07.75-.46.19-.97.29-1.52.31l-.17-.45Z"/>
    <path class="cls-1" d="M55.7,54.88c.06.21.27.79.6,1.73l1.41,3.97c.14.38.24.63.3.75.07.12.16.18.27.2l.43.05v.37h-3.08v-.37l.61-.07c.15-.02.25-.05.29-.1.04-.04.07-.11.07-.22,0-.17-.19-.75-.57-1.75h-2.6l-.63,1.5c-.07.15-.1.26-.1.36s.01.14.05.16c.03.02.11.04.24.05l.63.07v.36h-2.4v-.36l.38-.05c.09-.02.17-.05.23-.12.06-.06.13-.19.2-.37l2.76-6.16h.9ZM54.87,56.01l-1.19,2.84h2.2c-.3-.89-.64-1.84-1.01-2.84Z"/>
    <path class="cls-1" d="M61.74,58.63v2.84l2.31-.11c.16-.02.28-.06.34-.13.06-.07.14-.22.23-.45l.31-.77.4.09-.33,1.84h-5.6v-.35l.66-.08c.18-.02.3-.1.34-.24.04-.14.07-.54.09-1.2.02-.66.03-1.22.03-1.67,0-.51-.02-1.19-.06-2.06-.03-.44-.06-.71-.09-.81-.04-.1-.13-.15-.29-.16l-.69-.08v-.36h5.23v1.91h-.4l-.14-.78c-.05-.24-.1-.39-.17-.46-.07-.06-.21-.1-.41-.11l-1.77-.07v2.74l1.11-.03c.25,0,.4-.05.47-.13.07-.08.12-.24.15-.47l.09-.55h.38v2.79h-.38l-.08-.52c-.04-.23-.08-.39-.15-.46-.07-.08-.23-.12-.48-.12l-1.11-.03Z"/>
    <path class="cls-1" d="M69.84,61.94h-3.36v-.36l.66-.07c.19-.02.3-.1.35-.24.01-.04.03-.15.05-.33.02-.18.03-.46.05-.84.01-.37.02-.85.02-1.44,0-.63-.02-1.41-.06-2.32-.03-.44-.05-.71-.08-.8-.03-.1-.13-.15-.28-.17l-.7-.08v-.35h3.25c.77,0,1.47.12,2.09.35.62.24,1.12.6,1.5,1.1.37.5.57,1.12.57,1.85,0,.48-.09.95-.26,1.4-.17.45-.43.85-.78,1.19-.35.35-.77.62-1.27.81-.5.19-1.08.29-1.74.29ZM68.81,61.28c.3.11.66.16,1.08.16.52,0,.97-.13,1.37-.39.4-.26.71-.63.94-1.12.22-.49.34-1.07.34-1.72,0-.46-.08-.87-.24-1.21-.16-.35-.37-.64-.65-.88-.27-.24-.58-.42-.93-.53-.34-.11-.71-.17-1.09-.17h-.82v5.86Z"/>
    <path class="cls-1" d="M75.06,54.93h3.4v.36l-.65.08c-.14.02-.23.06-.29.13-.05.07-.09.2-.1.37-.02.17-.02.49-.02.96v3.21c0,.37,0,.63,0,.79,0,.16.02.29.05.39.03.1.06.17.1.2.04.03.11.05.2.07l.75.09v.36h-3.44v-.36l.66-.08c.19-.02.3-.1.35-.24,0-.03.03-.14.05-.33.02-.19.04-.47.05-.84.01-.38.02-.86.02-1.45,0-.63-.02-1.4-.06-2.31-.03-.44-.05-.71-.08-.8-.03-.09-.13-.15-.28-.17l-.7-.08v-.36Z"/>
    <path class="cls-1" d="M85.77,55.07v1.94h-.41l-.2-.91c-.04-.22-.15-.38-.3-.5-.23-.17-.66-.25-1.27-.25-.58,0-1.06.14-1.44.42-.38.28-.65.65-.83,1.12-.17.46-.26.99-.26,1.56,0,.42.05.81.15,1.17.1.36.25.69.46.99.21.3.48.53.81.7.32.17.71.25,1.15.25s.84-.05,1.13-.16c.29-.11.48-.28.59-.53l.46-1.09.37.09-.31,1.83c-.3.13-.64.23-1,.3-.37.06-.78.1-1.23.1-.79,0-1.44-.12-1.96-.36-.52-.24-.93-.55-1.21-.93-.29-.38-.48-.78-.58-1.18-.1-.4-.16-.79-.16-1.17,0-.51.12-1.04.35-1.6.24-.56.65-1.04,1.24-1.44.59-.41,1.36-.61,2.33-.61.37,0,.76.02,1.16.07.4.05.73.11.99.2Z"/>
    <path class="cls-1" d="M96.29,52.09v2.23h-.45l-.15-.95c-.05-.36-.24-.61-.56-.78-.32-.16-.73-.24-1.21-.24s-.88.18-1.2.55c-.32.37-.48.8-.48,1.3,0,.37.11.68.32.93.21.25.44.44.69.57.24.13.69.34,1.32.62.51.23.94.46,1.28.68.34.22.63.5.87.84.24.34.36.74.36,1.2,0,.41-.09.81-.26,1.19-.17.38-.41.71-.72,1-.31.28-.68.51-1.12.67-.43.16-.9.25-1.42.25-.65,0-1.23-.05-1.72-.15-.49-.1-.87-.2-1.12-.33v-2.51h.46l.14.98c.08.54.3.92.67,1.13.37.22.93.33,1.67.33.44,0,.82-.1,1.14-.3.32-.2.56-.46.72-.79.16-.33.25-.67.25-1.04,0-.52-.21-.95-.62-1.28-.42-.33-1.06-.68-1.92-1.04-.46-.19-.85-.39-1.16-.58-.31-.19-.58-.46-.8-.81-.22-.35-.33-.77-.33-1.27,0-.56.15-1.04.44-1.45.29-.41.68-.72,1.16-.93.48-.21.98-.32,1.52-.32.25,0,.53.01.82.04.29.03.57.07.82.12.25.05.45.09.6.13Z"/>
    <path class="cls-1" d="M104.33,59.97c.02-.36.03-.87.03-1.54s-.02-1.37-.06-2.1c-.02-.33-.04-.56-.05-.66-.01-.11-.04-.18-.08-.22-.04-.04-.11-.07-.23-.08l-.71-.08v-.36h2.86v.36l-.58.07c-.15.01-.24.05-.29.12-.05.07-.08.18-.1.34-.02.16-.03.5-.05,1.01l-.08,3.01c-.01.64-.22,1.18-.63,1.61s-1.08.65-2.02.65c-2.11,0-3.16-.64-3.16-1.92,0-.24,0-.47,0-.69,0-.22,0-.61,0-1.16s-.02-1.21-.06-1.99c-.02-.34-.04-.56-.05-.67-.01-.11-.04-.18-.08-.22-.04-.04-.12-.06-.23-.08l-.69-.08v-.36h3.34v.36l-.62.06c-.14.02-.24.05-.29.12-.05.06-.09.18-.1.36-.01.18-.02.51-.02,1v3.14c0,.32.08.6.24.82.16.22.38.39.68.51.3.12.65.17,1.07.17,1.24,0,1.89-.5,1.94-1.5Z"/>
    <path class="cls-1" d="M109.33,60.03c0,.38,0,.64.01.81,0,.17.03.3.05.38.02.09.06.15.11.19.06.04.13.07.23.08l.62.07v.36h-3.36v-.36l.66-.08c.2-.02.32-.1.35-.24.07-.32.11-1.25.11-2.8,0-.77-.03-1.65-.09-2.62,0-.17-.03-.29-.07-.36-.04-.06-.13-.11-.26-.12l-.69-.08v-.35h3.25c.47,0,.9.06,1.28.18.38.12.69.3.91.54.22.24.34.53.34.87,0,.48-.16.88-.49,1.2-.33.32-.75.54-1.28.65l2.18,2.8c.09.12.17.2.24.24.06.04.14.07.24.09l.46.07v.36h-1.86c-.26-.41-.53-.82-.82-1.24-.29-.42-.61-.84-.95-1.28-.34-.43-.63-.78-.87-1.05.7-.08,1.18-.27,1.46-.58.28-.3.42-.69.42-1.16,0-.36-.15-.65-.46-.87-.3-.23-.7-.34-1.18-.34h-.53v4.61Z"/>
    <path class="cls-1" d="M119.73,61.4c0-.11,0-.26,0-.45,0-.19,0-.36-.01-.52-.02-.33-.04-.54-.04-.63,0-.09-.04-.16-.08-.21-.04-.05-.11-.09-.21-.1l-.83-.08v-.36h3.18v.36l-.46.07c-.16.02-.25.07-.28.14-.03.08-.04.29-.05.63l-.05,1.53c-.68.21-1.49.32-2.45.32-.8,0-1.46-.12-1.99-.36-.53-.24-.93-.55-1.21-.92-.28-.37-.47-.77-.58-1.18-.11-.41-.16-.81-.16-1.19s.06-.76.19-1.17c.13-.42.34-.81.64-1.19.3-.38.71-.69,1.23-.93.52-.24,1.15-.36,1.9-.36.86,0,1.63.08,2.3.24v1.92h-.43l-.2-.88c-.05-.26-.17-.44-.34-.53-.31-.17-.77-.26-1.38-.26-.57,0-1.05.15-1.45.45-.39.3-.69.69-.87,1.17-.19.48-.29.99-.29,1.54s.1,1.06.29,1.54c.19.48.49.87.89,1.16.4.3.89.45,1.47.45.62,0,1.05-.07,1.28-.2Z"/>
    <path class="cls-1" d="M124.87,58.63v2.84l2.31-.11c.17-.02.28-.06.34-.13s.14-.22.23-.45l.31-.77.4.09-.33,1.84h-5.6v-.35l.66-.08c.18-.02.3-.1.34-.24.04-.14.07-.54.09-1.2.02-.66.03-1.22.03-1.67,0-.51-.02-1.19-.06-2.06-.03-.44-.06-.71-.09-.81-.04-.1-.13-.15-.29-.16l-.69-.08v-.36h5.23v1.91h-.4l-.14-.78c-.04-.24-.1-.39-.17-.46-.07-.06-.21-.1-.41-.11l-1.77-.07v2.74l1.11-.03c.25,0,.4-.05.47-.13.07-.08.12-.24.15-.47l.09-.55h.38v2.79h-.38l-.08-.52c-.04-.23-.08-.39-.15-.46-.07-.08-.23-.12-.48-.12l-1.11-.03Z"/>
    <path class="cls-1" d="M133.29,54.8c.58,0,1.11.08,1.58.25.47.17.87.41,1.19.72.33.31.58.69.75,1.14.17.46.26.97.26,1.54s-.08,1.08-.26,1.54c-.17.45-.42.83-.75,1.14-.32.31-.72.55-1.19.71-.47.17-1,.25-1.58.25-.77,0-1.44-.15-2.01-.43-.57-.29-1-.71-1.31-1.26-.3-.55-.45-1.2-.45-1.95,0-.55.09-1.06.26-1.52.18-.46.43-.84.75-1.16.33-.31.72-.56,1.2-.72.47-.16.99-.25,1.56-.25ZM133.29,61.6c.36,0,.69-.07.99-.22.3-.15.56-.36.77-.63.22-.27.38-.6.5-.99.12-.38.18-.82.18-1.31s-.06-.94-.18-1.33c-.12-.39-.28-.72-.5-.99-.22-.27-.48-.48-.77-.62-.3-.14-.62-.21-.99-.21-.48,0-.9.13-1.26.38-.37.26-.65.62-.86,1.1-.2.48-.31,1.04-.31,1.68s.1,1.19.31,1.67c.21.48.49.85.86,1.1.37.26.79.38,1.26.38Z"/>
    <path class="cls-1" d="M139.4,55.53c-.09-.08-.21-.13-.35-.15l-.62-.1v-.35h2.33l4.17,5.35c-.02-.32-.03-.73-.04-1.23,0-.5-.02-1.03-.03-1.6,0-.57-.02-.94-.03-1.12-.02-.34-.04-.56-.05-.66-.02-.1-.04-.18-.08-.22-.04-.04-.12-.07-.22-.08l-.75-.09v-.35h2.85v.35l-.66.09c-.12.01-.2.05-.24.11-.04.05-.08.18-.09.39-.02.2-.03.52-.03.96l-.04,5.17h-.8c-1.46-2.11-3.03-4.13-4.7-6.05l.04,4.1c0,.5,0,.83,0,.97,0,.14.04.25.09.33.05.07.16.12.31.14l.69.1v.36h-2.88v-.36l.69-.09c.11-.01.19-.04.23-.08.04-.04.07-.11.08-.22.02-.1.03-.32.05-.66.04-.73.06-1.42.06-2.07,0-1.48,0-2.46.02-2.92Z"/>
    <path class="cls-1" d="M152.16,55.01v1.85h-.45l-.14-.91c-.06-.44-.48-.66-1.25-.66-.34,0-.6.11-.8.34-.2.23-.3.51-.3.85,0,.19.04.35.11.47.07.12.17.24.31.34.14.1.26.18.37.23.11.05.35.15.71.31.29.12.55.23.78.33.22.11.42.23.6.36.18.13.33.31.45.53.12.22.18.47.18.75,0,.42-.12.81-.37,1.18s-.58.65-1,.84c-.42.2-.88.29-1.37.27-.45-.02-.87-.05-1.24-.11-.37-.06-.68-.14-.92-.22v-2.08h.45l.15.85c.06.38.23.66.5.83.27.17.65.25,1.13.25s.84-.13,1.08-.39c.25-.26.37-.59.37-1,0-.21-.04-.38-.12-.52-.08-.14-.19-.26-.35-.37-.16-.11-.35-.21-.57-.3-.23-.09-.47-.19-.73-.29-.33-.13-.61-.27-.84-.41-.23-.14-.43-.34-.59-.61-.16-.26-.24-.6-.24-1.02,0-.6.23-1.07.7-1.4.46-.33,1.03-.5,1.7-.5.48,0,1.04.07,1.68.21Z"/>
  </g>
</svg>