<svg xmlns="http://www.w3.org/2000/svg" viewBox="0 0 133.484 39.793">
  <defs>
    <style>
      .cls-1 {
        fill: #fff;
      }
    </style>
  </defs>
  <g id="group-21" transform="translate(0 0.001)">
    <g id="group" transform="translate(0 0)">
      <path id="path" class="cls-1" d="M167.45,2.122V10.5H165.8l-.6-3.591a3.737,3.737,0,0,0-2.1-2.918,10.336,10.336,0,0,0-4.564-.9,5.847,5.847,0,0,0-4.564,2.1,7.112,7.112,0,0,0-1.8,4.863,5.148,5.148,0,0,0,1.2,3.517A8.81,8.81,0,0,0,156,15.74c.9.524,2.619,1.272,5.013,2.32A38.978,38.978,0,0,1,165.8,20.6a10.74,10.74,0,0,1,3.217,3.143,7.584,7.584,0,0,1,1.347,4.489,10.326,10.326,0,0,1-.973,4.489,12.261,12.261,0,0,1-2.694,3.741,13.1,13.1,0,0,1-4.19,2.544,15.226,15.226,0,0,1-5.312.9,33.712,33.712,0,0,1-6.51-.524,19.512,19.512,0,0,1-4.19-1.2v-9.5h1.721l.524,3.666a5.486,5.486,0,0,0,2.544,4.265,12.831,12.831,0,0,0,6.285,1.2,8.334,8.334,0,0,0,4.34-1.122,6.945,6.945,0,0,0,2.694-2.993,8.731,8.731,0,0,0,.9-3.891,5.817,5.817,0,0,0-2.394-4.789,29.8,29.8,0,0,0-7.258-3.891,29.166,29.166,0,0,1-4.34-2.17,9.522,9.522,0,0,1-2.993-2.993,8.774,8.774,0,0,1-1.272-4.789,9.076,9.076,0,0,1,1.646-5.462,10.534,10.534,0,0,1,4.34-3.517A13.377,13.377,0,0,1,158.921,1c.973,0,1.945.075,3.068.15a18.891,18.891,0,0,1,3.068.449C166.178,1.823,166.927,1.973,167.45,2.122Z" transform="translate(-36.884 -0.254)"/>
      <path id="path-2" data-name="path" class="cls-1" d="M68.313,37.415a1.572,1.572,0,0,1-1.272-.823c-.224-.449-.748-1.945-1.646-4.34L58.063,10.7c-.374-1.122-.748-2.245-1.2-3.442s-.748-2.17-.973-2.918-.524-1.721-.9-2.843H51.628L37.262,34.8a11.437,11.437,0,0,1-1.122,2.1,1.26,1.26,0,0,1-1.048.6,1.3,1.3,0,0,1-1.2-.823c-.224-.449-.748-1.945-1.646-4.34L24.916,10.778c-.374-1.122-.748-2.245-1.2-3.442s-.748-2.17-1.048-2.918c-.224-.748-.524-1.721-.9-2.843H18.406L4.115,34.8a8.1,8.1,0,0,1-1.122,2.1,1.638,1.638,0,0,1-1.048.6L0,37.714v1.5H11.149v-1.5L8.455,37.34a6.413,6.413,0,0,1-.973-.224,1.342,1.342,0,0,1-.524-.374,1.61,1.61,0,0,1-.15-.748,5.208,5.208,0,0,1,.524-1.8L11,25.443H24.916c1.048,3.143,1.871,5.462,2.394,7.108a13.188,13.188,0,0,1,.748,2.993,1.626,1.626,0,0,1-.374,1.2,2.861,2.861,0,0,1-1.5.524l-2.619.374v1.5h20.8v-1.5l-2.694-.374a6.413,6.413,0,0,1-.973-.224,1.342,1.342,0,0,1-.524-.374,1.61,1.61,0,0,1-.15-.748,5.208,5.208,0,0,1,.524-1.8l3.592-8.679H58.063c1.048,3.143,1.871,5.462,2.394,7.108a13.189,13.189,0,0,1,.748,2.993,1.626,1.626,0,0,1-.374,1.2,2.861,2.861,0,0,1-1.5.524l-2.619.374v1.5H70.558V37.565ZM11.9,22.9,18.481,6.438c2.02,5.537,3.891,11,5.612,16.461Zm33.221,0L51.7,6.438c2.02,5.537,3.891,11,5.612,16.461Z" transform="translate(0 -0.38)"/>
      <path id="path-3" data-name="path" class="cls-1" d="M93.25,11.449a18.972,18.972,0,0,1,21.325-2.694,18.652,18.652,0,0,1,9.2,11c0,.075.075.075.15.075s.075,0,.15-.075A17.693,17.693,0,0,0,124.9,6.361h0a1.775,1.775,0,0,0-.6-1.048l-.3-.3a19.611,19.611,0,0,0-30.9,6.21c0,.075,0,.15.075.15C93.1,11.449,93.175,11.449,93.25,11.449Z" transform="translate(-23.44 -0.003)"/>
      <path id="path-4" data-name="path" class="cls-1" d="M111.435,42.427a18.815,18.815,0,0,1-8.006-30.6c0-.075.075-.075,0-.15,0-.075-.075-.075-.15-.075a17.655,17.655,0,0,0-11.972,5.986h0a2.566,2.566,0,0,0-.673,1.048l-.075.374a19.638,19.638,0,0,0,20.876,23.644c.075,0,.075-.075.15-.15C111.51,42.5,111.51,42.427,111.435,42.427Z" transform="translate(-22.695 -2.923)"/>
      <path id="path-5" data-name="path" class="cls-1" d="M134.538,22.375a19.267,19.267,0,0,0-3.517-10.4c0-.075-.075-.075-.15-.075s-.075.075-.075.15a18.94,18.94,0,0,1-8.305,19.828,18.725,18.725,0,0,1-14.142,2.469c-.075,0-.075,0-.15.075v.15a17.982,17.982,0,0,0,11.149,7.407h0a3.656,3.656,0,0,0,1.2.075l.374-.075A19.868,19.868,0,0,0,134.538,22.375Z" transform="translate(-27.242 -2.999)"/>
    </g>
  </g>
</svg>
