<?xml version="1.0" encoding="UTF-8"?>
<svg id="Layer_1" data-name="Layer 1" xmlns="http://www.w3.org/2000/svg" viewBox="0 0 200 200">
  <defs>
    <style>
      .cls-1 {
        fill: #fff;
      }

      .cls-2 {
        fill: #3cbd9f;
      }
    </style>
  </defs>
  <circle class="cls-2" cx="100" cy="100" r="100"/>
  <path class="cls-1" d="M100,17.34c-45.58,0-82.66,37.08-82.66,82.66s37.08,82.66,82.66,82.66,82.66-37.08,82.66-82.66S145.58,17.34,100,17.34ZM54.9,160.36c.26-24.65,20.39-44.62,45.1-44.62s44.84,19.97,45.1,44.62c-12.58,9.43-28.2,15.02-45.1,15.02s-32.52-5.59-45.1-15.02ZM152,154.52c-2.45-20.23-16.47-36.95-35.24-43.31,9.95-5.8,16.66-16.58,16.66-28.9,0-18.43-15-33.43-33.43-33.43s-33.43,15-33.43,33.43c0,12.32,6.71,23.1,16.66,28.9-18.76,6.36-32.79,23.07-35.24,43.31-14.39-13.74-23.38-33.1-23.38-54.52,0-41.56,33.81-75.38,75.38-75.38s75.38,33.81,75.38,75.38c0,21.42-8.98,40.78-23.38,54.52ZM100,108.46c-14.42,0-26.15-11.73-26.15-26.15s11.73-26.15,26.15-26.15,26.15,11.73,26.15,26.15-11.73,26.15-26.15,26.15Z"/>
</svg>