<svg xmlns="http://www.w3.org/2000/svg" width="24" height="24" viewBox="0 0 24 24">
    <g fill="none" fill-rule="evenodd">
        <path d="M0 0h24v24H0z"/>
        <path fill="#315996" d="M5.778 4h12.444C19.407 4 20 4.593 20 5.778v12.444C20 19.407 19.407 20 18.222 20H5.778C4.593 20 4 19.407 4 18.222V5.778C4 4.593 4.593 4 5.778 4zm8.764 4.626l-4.404 4.405-1.257-1.263a.884.884 0 0 0-1.254 0 .893.893 0 0 0 .002 1.26l1.802 1.803a1 1 0 0 0 1.414 0l4.95-4.952a.886.886 0 1 0-1.253-1.253z"/>
    </g>
</svg>
