<?xml version="1.0" encoding="UTF-8"?>
<svg id="Layer_1" data-name="Layer 1" xmlns="http://www.w3.org/2000/svg" viewBox="0 0 802.62 83.53">
  <defs>
    <style>
      .cls-1 {
        fill: #f9a66e;
      }

      .cls-2 {
        fill: #fcc299;
      }

      .cls-3 {
        fill: #f9b78a;
      }

      .cls-4 {
        fill: #ebf6f1;
      }

      .cls-5 {
        fill: #fff;
      }

      .cls-6 {
        fill: #754d25;
      }

      .cls-7 {
        fill: #5a2c1e;
      }

      .cls-8 {
        fill: #dbefe7;
      }

      .cls-9 {
        fill: #351712;
      }

      .cls-10 {
        fill: #8d633a;
      }

      .cls-11 {
        fill: #ccc8c8;
      }

      .cls-12 {
        fill: #1b86c8;
      }

      .cls-13 {
        fill: #58612f;
      }

      .cls-14 {
        fill: #f26752;
      }

      .cls-15 {
        fill: #0361a1;
      }

      .cls-16 {
        fill: #edebeb;
      }

      .cls-17 {
        fill: #696868;
      }

      .cls-18 {
        fill: #472016;
      }

      .cls-19 {
        fill: #010101;
      }

      .cls-20 {
        fill: #bdce89;
      }

      .cls-21 {
        fill: #855636;
      }

      .cls-22 {
        fill: #9f9f9f;
      }

      .cls-23 {
        fill: #164987;
      }

      .cls-24 {
        fill: #a6bd49;
      }
    </style>
  </defs>
  <g>
    <path class="cls-8" d="M400.73,39.65c-24.23,0-43.88,19.64-43.88,43.88h87.75c0-24.23-19.64-43.88-43.88-43.88Z"/>
    <path class="cls-8" d="M488.41,31.06c-28.9,0-52.32,23.42-52.32,52.32h104.64c0-28.9-23.42-52.32-52.32-52.32Z"/>
    <path class="cls-4" d="M438.77,51.84c-17.5,0-31.69,14.19-31.69,31.69h63.38c0-17.5-14.19-31.69-31.69-31.69Z"/>
    <path class="cls-4" d="M350.85,62.38c-11.68,0-21.15,9.47-21.15,21.15h42.3c0-11.68-9.47-21.15-21.15-21.15Z"/>
    <path class="cls-8" d="M669.28,48.38c-19.41,0-35.15,15.73-35.15,35.15h70.29c0-19.41-15.73-35.15-35.15-35.15Z"/>
    <path class="cls-8" d="M779.36,60.12c-12.85,0-23.26,10.42-23.26,23.26h46.53c0-12.85-10.42-23.26-23.26-23.26Z"/>
    <path class="cls-4" d="M729.42,38.81c-24.7,0-44.72,20.02-44.72,44.72h89.44c0-24.7-20.02-44.72-44.72-44.72Z"/>
    <path class="cls-4" d="M629.13,53.4c-16.64,0-30.12,13.49-30.12,30.12h60.25c0-16.64-13.49-30.12-30.12-30.12Z"/>
    <g>
      <path class="cls-4" d="M564.08,38.51c-24.86,0-45.01,20.15-45.01,45.01h90.03c0-24.86-20.15-45.01-45.01-45.01Z"/>
      <path class="cls-8" d="M564.08,38.51c-.16,0-.31.02-.47.02v44.99h45.49c0-24.86-20.15-45.01-45.01-45.01Z"/>
    </g>
  </g>
  <g>
    <path class="cls-8" d="M71.03,39.65c-24.23,0-43.88,19.64-43.88,43.88h87.75c0-24.23-19.64-43.88-43.88-43.88Z"/>
    <path class="cls-8" d="M158.71,31.06c-28.9,0-52.32,23.42-52.32,52.32h104.64c0-28.9-23.42-52.32-52.32-52.32Z"/>
    <path class="cls-4" d="M109.07,51.84c-17.5,0-31.69,14.19-31.69,31.69h63.38c0-17.5-14.19-31.69-31.69-31.69Z"/>
    <path class="cls-4" d="M21.15,62.38c-11.68,0-21.15,9.47-21.15,21.15h42.3c0-11.68-9.47-21.15-21.15-21.15Z"/>
    <path class="cls-8" d="M339.58,48.38c-19.41,0-35.15,15.73-35.15,35.15h70.29c0-19.41-15.73-35.15-35.15-35.15Z"/>
    <path class="cls-8" d="M449.66,60.12c-12.85,0-23.26,10.42-23.26,23.26h46.53c0-12.85-10.42-23.26-23.26-23.26Z"/>
    <path class="cls-4" d="M399.72,38.81c-24.7,0-44.72,20.02-44.72,44.72h89.44c0-24.7-20.02-44.72-44.72-44.72Z"/>
    <path class="cls-4" d="M299.43,53.4c-16.64,0-30.12,13.49-30.12,30.12h60.25c0-16.64-13.49-30.12-30.12-30.12Z"/>
    <g>
      <path class="cls-4" d="M234.38,38.51c-24.86,0-45.01,20.15-45.01,45.01h90.03c0-24.86-20.15-45.01-45.01-45.01Z"/>
      <path class="cls-8" d="M234.38,38.51c-.16,0-.31.02-.47.02v44.99h45.49c0-24.86-20.15-45.01-45.01-45.01Z"/>
    </g>
  </g>
  <g>
    <g>
      <path class="cls-2" d="M753.2,18.34c-1.04-1.97-4.43-3.3-5.39-3.87-.95-.57-.67-2.92-.67-2.92l-5.86-.29s.02,2.36-.99,2.84c-1.01.47-4.53,1.45-5.78,3.31-1.25,1.86,2.93,8.52,2.74,11.92-.13,2.44-.92,4.51-.12,8.59l13.03-2.63s-1.13-2.91-.99-5.35c.19-3.4,5.07-9.61,4.02-11.58Z"/>
      <path class="cls-1" d="M740.64,13.84c1.13-.49.9.33,3.04.92,1.41.38,3.26-.52,3.57-1.18-.24-.88-.1-2.02-.1-2.02l-5.86-.29s.02,1.81-.65,2.58Z"/>
    </g>
    <g>
      <path class="cls-13" d="M742.36,77.48c-.12.64-.16,1.29-.13,1.95,0,.09.05.18.11.24.16.15.45.47.54.82.12.49-.29,1.38,1.42,1.75.47.07,1.34.11,2.07-.04,1.27-.3.91-1.97.91-1.97l-1.17-1.5-.23-1.3c-.04-.21-.24-.34-.44-.3-.69.14-1.61.14-2.68.06-.19-.02-.36.12-.4.3Z"/>
      <path class="cls-20" d="M742.36,76.76c-.13.69-.19,1.38-.14,2.08,0,0,.54.44.66.93.12.49-.29,1.38,1.42,1.75,0,0,.99.12,1.88,0,.89-.12,1.49-.89.84-1.91l-.92-1.61-.23-1.3c-.04-.21-.24-.34-.44-.3-.58.12-1.32.14-2.18.09-.16,0-.33-.02-.5-.03-.19-.02-.36.12-.4.3Z"/>
    </g>
    <g>
      <path class="cls-13" d="M737.68,78.19c-.21.45-.78.54-1.27,1.55-.4.81-1.17,2.79-3.6,2.23-1.25-.28-1.65-1.16-1.32-1.91.14-.31.44-.38.8-.73,1.24-1.2,1.63-2.53,1.63-2.53.09-.19.32-.26.51-.17.53.28,1.24.51,2.08.7.16.04.64-.16,1.02-.55.37-.39.37.95.16,1.41Z"/>
      <path class="cls-20" d="M737.76,77.44c-.21.45-.78.54-1.27,1.55-.4.81-1.17,2.79-3.6,2.23-1.77-.4-1.76-1.45-.52-2.64,1.24-1.2,1.63-2.53,1.63-2.53.09-.19.32-.26.51-.17.53.28,1.24.51,2.08.7.16.04.64-.16,1.02-.55.37-.39.37.95.16,1.41Z"/>
    </g>
    <path class="cls-15" d="M732.99,77.87c2.08.74,4.01.84,5.36-.21,0,0,.68-18.17.89-18.76.09-.27,4.12-12.49,4.12-12.49l-1.71,31.53c1.51.77,3.87.87,5.17.21,0,0,.57-8.93,1.44-13.99.93-5.48,1.33-8.22,2.01-11.9.82-4.4,1.88-9.29.07-17l-.04-.15-13.3,2.69-.05,1.7c-.06.75-3.76,11.47-4.03,18.18-.19,4.71.08,20.21.08,20.21Z"/>
    <path class="cls-23" d="M751.08,29.71c1.62.06,3.66-.4,5.86-1.04-.26-4.67-2.06-10.45-3.37-11.46-1.54-1.19-3.68-1.81-5.05-2.37l-4.68,4.1-4.64-4.41c-2.96.31-4.09,1.15-4.57,1.53-1.92,1.53-4.15,7.98-4.6,10.79,1.87.98,3.74,1.62,5.6,1.91.53-2.06.8-3.1.8-3.1-.3,6.33-1.3,14.74-2,21.54,4.96.97,12.15,1.68,17.61.71.12-7.39-1.61-21.57-1.61-21.57l.66,3.36Z"/>
    <g>
      <polygon class="cls-24" points="741.18 28.31 742.35 40.65 750.32 38.94 749.28 26.8 741.18 28.31"/>
      <polygon class="cls-5" points="741.59 28.46 742.66 39.68 749.91 38.13 748.96 27.08 741.59 28.46"/>
      <path class="cls-3" d="M750.5,33.41l-4.26.23s-2.72-.84-3.06-.79-1.5.76-1.5.76c.17.39.49.59,1.16.39.22-.12.44-.15.65-.1l-.72.46-1.18-.07c-.59.11-.73.49-.51.93-.2.32-.14.58.08.8-.15.4.08.59.32.78.01.42.17.53.5.64,0,0,1.62.07,1.92.01.3-.06,2.39-1.12,2.39-1.12l3.95-.89.26-2.04Z"/>
      <path class="cls-3" d="M751.67,31.76l-5.6,1.89.39,2.63s8.56-.44,9.15-2.08c.23-.63.69-2.97.56-5.3-1.52.3-3.46.66-4.93.83l.44,2.05Z"/>
      <path class="cls-22" d="M747.06,27.8l.02.11-1.04.17c-.2.25-.52.52-.97.13l-1.23.23-.02-.11,1.27-.24.02.02c.31.28.57.24.87-.12h.01s1.07-.19,1.07-.19Z"/>
      <path class="cls-19" d="M743.14,27.95l.18.63c.21.17.39.13.52-.12l-.05-.63-.65.12Z"/>
      <path class="cls-19" d="M746.91,27.24l.17.67c.26.28.47.23.62-.16l-.12-.63-.67.12Z"/>
    </g>
    <g>
      <path class="cls-2" d="M747.97,7.7s.51-.97.91-.54c.67.72-.23,3.72-1.08,3.16l.17-2.61Z"/>
      <path class="cls-1" d="M748.12,7.9s.35-.61.62-.35c.46.46-.35,2.62-.74,2.01l.12-1.66Z"/>
      <path class="cls-2" d="M740.6,7.7s-.51-.97-.91-.54c-.67.72.23,3.72,1.08,3.16l-.17-2.61Z"/>
      <path class="cls-1" d="M740.45,7.9s-.35-.61-.62-.35c-.46.46.35,2.62.74,2.01l-.12-1.66Z"/>
    </g>
    <path class="cls-2" d="M744.31,1.52h0s-.02,0-.03,0c0,0-.02,0-.03,0h0c-2.06.02-4.1,1.2-4.1,3.54l.47,5.59c.3,1.8,2.58,3.12,3.13,3.12h1.05c.55,0,2.83-1.32,3.13-3.12l.47-5.59c0-2.34-2.04-3.52-4.1-3.54Z"/>
    <path class="cls-21" d="M747.31,2.46c1.97,1.44,1.06,4.76,1.06,4.76l-.29,1.71h-.07c.06-1.08.23-4.41-.61-5.08-.78-.62-.84-.33-3.17-.37-2.34-.03-2.78-.31-3.45.54-.46.59-.27,3.77-.21,4.9h-.07s-.25-1.64-.25-1.64c0,0-.87-3.04.66-4.56.63-.63,5.76-.75,6.41-.27Z"/>
    <path class="cls-21" d="M747.74,4.97c-.29.38-.12,1.02.32,1.21-.25.1-.37.45-.23.68.14.23.5.3.71.13.21-.17.22-.54.02-.72.15.12.4.06.52-.09.12-.15.13-.37.08-.56-.05-.19-.17-.35-.28-.51.38-.15.62-.58.56-.98-.06-.4-.43-.73-.83-.76.09-.2.03-.46-.14-.6-.17-.14-.43-.15-.61-.02.17-.47.02-1.03-.36-1.35-.38-.32-.96-.37-1.39-.12-.1-.32-.4-.56-.73-.6-.33-.03-.67.15-.84.44-.39-.35-.93-.51-1.44-.44-.51.07-.99.38-1.27.82-.29-.37-.92-.39-1.23-.05-.22.24-.29.6-.55.8-.21.15-.51.16-.72.02-.21-.14-.32-.43-.26-.68-.51.46-.54,1.35-.06,1.85-.16-.01-.31-.02-.47-.04.11.65.51,1.25,1.07,1.6-.19.02-.37.04-.56.06-.07.45.26.93.7,1.02-.18.23,0,.63.29.65.29.02.53-.34.39-.6.46.09.94-.14,1.27-.49.33-.34.53-.78.73-1.21.23.23.59.32.9.23.31-.09.56-.36.64-.68.25.25.74.19.92-.12.18.45.67.77,1.15.76.44,0,.73-.26,1.01-.56.06.4.29.78.7.89Z"/>
    <g>
      <path class="cls-2" d="M733.92,46.02c-.42-.09-1.35.14-1.35.14l-.45-1.44c-.03-.08,0-.16.05-.23.12-.13.34-.09.41.07l.49,1.06c.09.24.39.36.63.24.19-.09.12-.52.08-.71l-.56-2.6-1.11-1.8c1.14-4.2,2.25-7.57,2-9.84.37-.61.72-1.39,1.04-2.24-1.56-.32-3.04-.8-4.41-1.47-.07.7-.11,1.41-.11,2.11-1.46,3.3-.54,7.69-.18,11.69l-.21,3.65s.73,2.3,1.4,2.5c.67.19,1.9-.19,2.36-.32.46-.13.34-.73-.08-.81Z"/>
      <path class="cls-2" d="M732.57,46.16l-.93.43s-1.14-2.5-.46-2.91c.68-.41,1.21.17,1.21.73-.08-.01-.16.01-.22.07-.06.06-.08.15-.05.23l.45,1.44Z"/>
    </g>
  </g>
  <g>
    <rect class="cls-11" x="711.09" y="35.97" width="9.55" height="15.74"/>
    <g>
      <path class="cls-18" d="M709.46,7.98c-.13,1.38-.02,2.81.52,4.1.22.54.52,1.04.74,1.58.22.54.37,1.13.29,1.7-.09.58-.45,1.13-1,1.32.83.38,1.85.25,2.62-.24.78-.48,1.33-1.27,1.66-2.13.33-.85.46-1.77.52-2.69.26-3.62-.84-7.61-2.38-10.89-1.78-.64-2.84,5.86-2.97,7.24Z"/>
      <path class="cls-9" d="M711.27,7.47c.05-.21.24-4.19,2.34-5.58,2.1-1.39,4.38,1.08,5.19,3.05.81,1.97,2.64,4.99,2.23,6.12-.62,1.7-1.74,3.69-2.54,5.31-2.03,2.72-5.4,1.04-5.4,1.04,0,0-.21-2.75-.71-4.02-.51-1.27-1.1-2.53-1.24-3.91-.07-.67-.02-1.36.14-2.01Z"/>
    </g>
    <path class="cls-19" d="M712.72,14.06c.64-.5,1.56-.71,3.09-.71,1.18,0,2.39.13,3.22,1.08.08.1.16.2.24.31-.1.06-.19.13-.29.19-.06-.1-.13-.19-.21-.27-.69-.79-1.69-.96-2.96-.96h-.02c-1.68,0-2.78.23-3.38,1.24,0,0-.01,0-.02-.01-.11-.04-.21-.07-.32-.11.17-.31.38-.56.64-.76Z"/>
    <g>
      <path class="cls-17" d="M713.66,77.28c.11.6.15,1.21.12,1.83,0,.09-.04.17-.11.23-.15.14-.42.44-.5.77-.11.46.27,1.3-1.33,1.64-.44.07-1.25.1-1.94-.04-1.19-.28-.85-1.85-.85-1.85l1.1-1.41.22-1.22c.03-.19.22-.32.41-.28.65.13,1.51.13,2.51.05.18-.01.34.11.37.29Z"/>
      <path class="cls-11" d="M713.66,76.61c.12.65.18,1.29.13,1.96,0,0-.51.41-.62.87-.11.46.27,1.3-1.33,1.64,0,0-.93.11-1.76,0-.83-.11-1.4-.83-.79-1.79l.86-1.51.22-1.22c.03-.19.22-.32.41-.28.55.11,1.24.13,2.04.09.15,0,.31-.02.47-.03.18-.01.34.11.37.29Z"/>
    </g>
    <g>
      <path class="cls-17" d="M723.98,77.28c-.11.6-.15,1.21-.12,1.83,0,.09.04.17.11.23.15.14.42.44.5.77.11.46-.27,1.3,1.33,1.64.44.07,1.25.1,1.94-.04,1.19-.28.85-1.85.85-1.85l-1.1-1.41-.22-1.22c-.03-.19-.22-.32-.41-.28-.65.13-1.51.13-2.51.05-.18-.01-.34.11-.37.29Z"/>
      <path class="cls-11" d="M723.98,76.61c-.12.65-.18,1.29-.13,1.96,0,0,.51.41.62.87.11.46-.27,1.3,1.33,1.64,0,0,.93.11,1.76,0,.83-.11,1.4-.83.79-1.79l-.86-1.51-.22-1.22c-.03-.19-.22-.32-.41-.28-.55.11-1.24.13-2.04.09-.15,0-.31-.02-.47-.03-.18-.01-.34.11-.37.29Z"/>
    </g>
    <path class="cls-10" d="M707.64,16.52c.96-1.38,4.21-1,5.25-1.77,1.05-.78.89-3.81.89-3.81h3.71s-.15,3.03.89,3.81c1.05.78,4.3.39,5.25,1.77,1.59,2.3-1.49,4.18-1.96,5.5-1.03,2.74-1.47,4.81-1.47,6.98h-9.14c0-2.17-.44-4.24-1.47-6.98-.46-1.32-3.55-3.19-1.96-5.5Z"/>
    <path class="cls-6" d="M716.3,12.99c-1.12.23-2.08-.04-2.55-.59.07-.79.04-1.46.04-1.46h3.71s-.07,1.34.19,2.47c-.43-.44-.75-.55-1.39-.42Z"/>
    <path class="cls-12" d="M709.63,77.91c1.41.28,2.9.21,4.61-.2-.6-11.81-.7-24,.28-34.15,3.04,9.77,5.63,22.35,8,34.77,1.91.27,3.8-.04,5.16-.96,0,0-5.41-35.03-6.01-38.16.01-2.52-.4-4.31-.79-6.04-.31-1.35-.6-2.62-.7-4.2v-.05h-9.25v.05c-.11,1.68-.84,2.73-1.69,3.95-1.21,1.73-2.57,3.7-2.56,8.12.01,3.68,2.94,36.88,2.94,36.88Z"/>
    <path class="cls-15" d="M722.65,20.73c.97-1.15,2.2-3.01.81-4.46-.69-.72-4.11-1.32-4.83-1.53l-2.99,3-2.92-2.91s-3.88.99-4.91,1.67c-1.37.9-.14,3.08.83,4.23.4.48.78.93.92,1.31,1.03,2.73,1.47,4.81,1.47,6.96-.11,1.68-.84,2.73-1.69,3.94-.66.95-1.41,2.02-1.91,3.55,5.39.95,7.84,3.32,14.35,2.25-.04-2.26-.42-3.94-.79-5.55-.31-1.35-.6-2.62-.7-4.2,0-2.15.44-4.23,1.47-6.96.14-.38.51-.83.92-1.31Z"/>
    <g>
      <path class="cls-16" d="M712.72,14.83l1.43,11.11-1.06,26.8c-2.58.05-5.1-.33-7.53-1.3-.05-14.58,2.89-19.06,3.79-22.04.76-2.52.83-5,.83-5l-2.73-7.99c.94-.99,2.94-.97,5.27-1.58Z"/>
      <polygon class="cls-5" points="714.15 25.94 712.92 14.51 711.57 15.09 711.27 17.78 712.72 17.62 710.92 18.63 714.15 25.94"/>
      <path class="cls-16" d="M718.63,14.74l-1.44,11.2.51,26.8c2.35-.04,4.45-.49,6.38-1.25l-1.95-13.21-.07-.49c-.52-4.85-.53-9.61-.05-14.29l1.89-7.09c-.94-.99-3.12-1.25-5.27-1.67Z"/>
      <polygon class="cls-5" points="717.19 25.94 718.42 14.51 719.77 15.09 720.07 17.78 718.62 17.62 720.42 18.63 717.19 25.94"/>
      <path class="cls-10" d="M724.08,37.61l-.38.71-1.64-.52.07.49-1.41.58-1.24.89c-.09.06-.11.18-.06.28l.13.24-.12.11c-.1.09-.13.23-.08.35l.03.07c.06.14.21.21.36.17l.08-.02.03.05c.14.23.42.32.66.21l1.51-.73-.76.8c-.1.11-.09.27.02.37.09.08.23.08.33,0l1.14-.91h1.07c.21,0,.46-.06.56-.24.46-.78,1.4-1.93,1.4-1.93l-1.7-.98Z"/>
      <path class="cls-16" d="M726.91,39.17c-1.35-.32-2.55-.82-3.32-1.57l2.13-7.96-4.94-8.15s1.13-6.78,3.11-5.09c2.27,1.94,6.18,13.12,5.55,14.63s-2.53,8.14-2.53,8.14Z"/>
    </g>
    <g>
      <rect class="cls-14" x="712.64" y="23.5" width="8.55" height="12.06"/>
      <path class="cls-10" d="M716.13,30.11l.05-.04c.14-.12.18-.32.09-.48-.08-.16-.26-.24-.43-.19h-.04s-.09-.2-.09-.2c-.08-.19-.27-.3-.47-.26l-.99.17-1.6.07v-.74c-.65.1-1.24.73-1.24.73h-1.78s-.09,2.55-.09,2.55l1.8.11,1.35.62h1.53c.26,0,1.13-.79,1.13-.79.11-.08.13-.25.04-.35-.07-.08-.18-.09-.26-.04l-.86.52-.68-.1,1.68-.5.72-.33c.23-.11.32-.4.2-.63l-.06-.11Z"/>
      <path class="cls-16" d="M709.48,33.4l.16-4.4-3.41-.17c1.16-4.41,4.3-7.27,4.3-7.27,0,0-.91-6.57-3.09-5.16-2.18,1.42-6.12,13.28-5.47,14.79s7.51,2.2,7.51,2.2Z"/>
    </g>
    <g>
      <path class="cls-10" d="M712.02,6.49s-.52-.76-.91-.43c-.67.57.23,2.93,1.09,2.49l-.18-2.06Z"/>
      <path class="cls-6" d="M711.87,6.64s-.36-.48-.63-.27c-.46.36.35,2.06.75,1.58l-.12-1.31Z"/>
      <path class="cls-10" d="M719.43,6.49s.52-.76.91-.43c.67.57-.23,2.93-1.09,2.49l.18-2.06Z"/>
      <path class="cls-6" d="M719.58,6.64s.36-.48.63-.27c.46.36-.35,2.06-.75,1.58l.12-1.31Z"/>
    </g>
    <path class="cls-10" d="M711.55,6.91c.42,3.36,2.52,5.6,4.14,5.6s3.71-2.24,4.14-5.6c.44-3.5-.23-6.14-4.14-6.14s-4.58,2.65-4.14,6.14Z"/>
    <g>
      <path class="cls-18" d="M711.43,5.99c-.48-.74-.65-2.44-.42-3.29.24-.85.85-1.59,1.65-1.98-.01,0,.24.59.25.64.04.17.02.3,0,.47-.04.43-.1.84-.22,1.26-.25.81-.66,2.3-1.26,2.9Z"/>
      <path class="cls-18" d="M721,8.33c-1.47-3.21-3.29-4.09-4.87-4.6-1.11-.36-2.2-.89-3.07-1.68-.37-.33-.81-.77-.63-1.31,4.88-2.45,9.83,1.52,8.57,7.59Z"/>
      <path class="cls-7" d="M717.32,18.45c-1.94-2.63,1.47-4.23,2.22-5.66.48-.92.86-2.01.82-3.1-.04-1.09-.41-2.13-1.02-2.83-.68-.79-1.61-1.15-2.52-1.44-.91-.29-1.84-.55-2.62-1.19-.78-.64-1.7-1.68-1.58-2.9.48,1.09,1.84,1.53,2.79,1.86.95.33,1.96.47,2.88.93,2.54,1.28,3.42,3.5,3.55,6.08-.03,6.59-4.38,5.82-3.13,8.88-.56,0-1.09-.24-1.38-.63Z"/>
    </g>
  </g>
</svg>