<?xml version="1.0" encoding="UTF-8"?>
<svg id="_ëÎÓÈ_1" data-name="ëÎÓÈ 1" xmlns="http://www.w3.org/2000/svg" viewBox="0 0 2027.04 1373.11">
  <defs>
    <style>
      .cls-1 {
        fill: #315996;
      }

      .cls-2, .cls-3, .cls-4 {
        fill: #fff;
      }

      .cls-5 {
        fill: #ebb542;
      }

      .cls-6 {
        fill: #3cbd9f;
      }

      .cls-3 {
        font-size: 95.92px;
      }

      .cls-3, .cls-4 {
        font-family: OpenSans-Extrabold, 'Open Sans';
        font-weight: 700;
      }

      .cls-4 {
        font-size: 143.45px;
      }
    </style>
  </defs>
  <g>
    <path class="cls-1" d="M1205.9,7.73L363.65,236.13c-55.42,15.03-92.04,67.69-86.84,124.88l50.6,556.65c5.54,60.93,56.62,107.58,117.8,107.58h304.79l210.59,347.87,55.6-347.87h310.6c62.96,0,114.88-49.31,118.13-112.19l35.33-684.01c7.64-147.89-131.43-260.07-274.35-221.31Z"/>
    <path class="cls-6" d="M1941.14,770.82c-155.11-138.5-413.99-228.65-609.57-123.72-167.54,89.88-200.84,309.39-81.19,453.36,13.97,16.81,29.4,32.33,46.03,46.55,4.33,3.71,8.75,7.31,13.22,10.84l-56.85,181.3,177.92-112.56c102.7,40.5,219.78,49.97,326.09,33.42,224.25-34.89,372.7-321.01,184.35-489.19Z"/>
    <g>
      <path class="cls-5" d="M603.94,1216.38c1.39-1.17,2.79-2.34,4.16-3.54,86.5-75.98,112.94-198.76,97.31-321.67-1.92-15.07-4.44-30.07-7.57-44.96-29.77-141.29-188.43-205.27-325.64-197.45-113.07,6.45-244.9,54.29-316.19,141.65-85.46,104.73-67.31,261.67,15.29,363.05,92.19,113.15,260,157.6,402.85,125.13,4.39,9.14,52.13,73.92,196.53,84.45,0,0-97.13-62.14-66.73-146.67Z"/>
      <path class="cls-2" d="M318.13,984.55c0-15.17,12.23-32.66,36.69-52.48,10.83-8.98,18.11-16.02,21.83-21.13,3.72-5.11,5.57-11.07,5.57-17.88,0-8.36-2.79-15.17-8.36-20.44-5.57-5.26-12.54-7.9-20.9-7.9-17.03,0-29.88,11.77-38.55,35.3l-51.09-22.29c6.5-22.91,17.72-40.41,33.67-52.48,15.94-12.08,35.22-18.11,57.82-18.11,26.01,0,47.76,7.59,65.25,22.76,17.49,15.17,26.24,34.68,26.24,58.52,0,12.7-2.95,24.15-8.82,34.37-5.89,10.22-15.79,21.36-29.72,33.44-13.93,12.08-22.84,20.44-26.71,25.08-3.88,4.64-5.81,9.91-5.81,15.79,0,1.55.3,4.8.93,9.75h-52.95c-3.41-7.74-5.11-15.17-5.11-22.29ZM307.91,1081.62c0-12.08,4.18-22.29,12.54-30.65,8.36-8.36,18.73-12.54,31.12-12.54s22.68,4.18,30.89,12.54c8.2,8.36,12.31,18.58,12.31,30.65s-4.11,22.69-12.31,30.89c-8.21,8.2-18.51,12.31-30.89,12.31s-22.76-4.11-31.12-12.31c-8.36-8.2-12.54-18.5-12.54-30.89Z"/>
    </g>
  </g>
  <text class="cls-4" transform="translate(426.47 434.87)"><tspan x="0" y="0">QUESTIONS?</tspan><tspan x="51.66" y="172.14">FEEDBACK?</tspan></text>
  <text class="cls-3" transform="translate(1335.5 871.86)"><tspan x="0" y="0">WE’D LOVE</tspan><tspan x="52.18" y="104.72">TO HEAR</tspan><tspan x="-14.1" y="209.44">FROM YOU!</tspan></text>
</svg>