<?xml version="1.0" encoding="UTF-8"?>
<svg id="Layer_1" data-name="Layer 1" xmlns="http://www.w3.org/2000/svg" viewBox="0 0 200 200">
  <defs>
    <style>
      .cls-1 {
        fill: none;
        stroke: #fff;
        stroke-linejoin: round;
        stroke-width: 3px;
      }

      .cls-2 {
        fill: #ebb542;
      }
    </style>
  </defs>
  <circle class="cls-2" cx="100" cy="100" r="100"/>
  <g>
    <path class="cls-1" d="M65.27,64.15c7.05,0,12.76-5.71,12.76-12.76s-5.71-12.76-12.76-12.76-12.75,5.71-12.75,12.76,5.71,12.76,12.75,12.76Z"/>
    <path class="cls-1" d="M42.06,77.35c1.24,1.59,3.14,2.54,5.22,2.54.96,0,1.97-.21,2.96-.64,3.37-1.48,4.25-5.44,3.16-8.87-.72-2.25-1.39-3.27-3.14-3.28-1.37-.01-3.09.78-4.83,1.6-3.32,1.58-5.58,2.53-4.35,6.36.15.46.33,1.48.97,2.29Z"/>
    <path class="cls-1" d="M102.2,61.14c7.04,0,12.75-5.71,12.75-12.76s-5.71-12.76-12.75-12.76-12.76,5.71-12.76,12.76,5.71,12.76,12.76,12.76Z"/>
    <path class="cls-1" d="M109.43,159.08c-3.99,0-7.23-3.24-7.23-7.23,0,3.99-3.23,7.23-7.23,7.23-5.09,0-7.29-3.87-7.29-7.23v-68.41c0-8.24-4.82-13.35-4.82-13.35,2.81-2.44,6.53-2.95,11.95-3l7.38,7.36,7.41-7.36c5.42.05,9.12.56,11.93,3-1.77,2.46-4.82,6.47-4.82,13.35v68.41c0,4.28-3.27,7.23-7.29,7.23Z"/>
    <path class="cls-1" d="M53.54,70.84c1.43-.47,3-.75,4.69-.75l7.04,7.04,7.02-7.02c4.6-.02,9.91.4,12.18,2.16"/>
    <path class="cls-1" d="M87.68,89.57s-6.24-1.6-8.51-2.34v64.54c0,4.6-3.29,7.32-7.29,7.32s-7.23-3.24-7.23-7.23c0,3.99-3.25,7.23-7.3,7.23s-7.2-3.22-7.2-7.19v-33.62c-4.67,0-7.57-2.7-7.57-6.66v-24.77c0-2.05.25-3.91.7-5.61.14-.62.41-1.36.81-2.16"/>
    <path class="cls-1" d="M139.17,64.15c-7.05,0-12.76-5.71-12.76-12.76s5.71-12.76,12.76-12.76,12.75,5.71,12.75,12.76-5.71,12.76-12.75,12.76Z"/>
    <path class="cls-1" d="M162.38,77.35c-1.24,1.59-3.14,2.54-5.22,2.54-.96,0-1.97-.21-2.96-.64-3.37-1.48-4.25-5.44-3.16-8.87.72-2.25,1.39-3.27,3.14-3.28,1.37-.01,3.09.78,4.83,1.6,3.32,1.58,5.58,2.53,4.35,6.36-.15.46-.33,1.48-.97,2.29Z"/>
    <path class="cls-1" d="M150.9,70.84c-1.43-.47-3-.75-4.69-.75l-7.04,7.04-7.02-7.02c-4.6-.02-9.91.4-12.18,2.16"/>
    <path class="cls-1" d="M116.76,89.57s6.24-1.6,8.51-2.34v64.54c0,4.6,3.3,7.32,7.29,7.32s7.23-3.24,7.23-7.23c0,3.99,3.25,7.23,7.3,7.23s7.2-3.22,7.2-7.19v-33.62c4.67,0,7.57-2.7,7.57-6.66v-24.77c0-2.05-.25-3.91-.7-5.61-.14-.62-.41-1.36-.81-2.16"/>
  </g>
</svg>