<?xml version="1.0" encoding="UTF-8"?>
<svg id="Layer_1" data-name="Layer 1" xmlns="http://www.w3.org/2000/svg" viewBox="0 0 472.92 137.61">
  <defs>
    <style>
      .cls-1 {
        fill: #ebf6f1;
      }

      .cls-2 {
        fill: #fff;
      }

      .cls-3 {
        fill: #5f6f76;
      }

      .cls-4 {
        fill: #566970;
      }

      .cls-5 {
        fill: #b2b5b9;
      }

      .cls-6 {
        fill: #818a91;
      }

      .cls-7 {
        fill: #74c8af;
      }

      .cls-8 {
        fill: #78838a;
      }

      .cls-9 {
        fill: #dbefe7;
      }

      .cls-10 {
        fill: #67757c;
      }

      .cls-11 {
        fill: #c7cacc;
      }

      .cls-12 {
        fill: #8a9298;
      }

      .cls-13 {
        fill: #e0e0e1;
      }

      .cls-14 {
        fill: #c68834;
      }

      .cls-15 {
        fill: #eab542;
      }

      .cls-16 {
        fill: #f3d69d;
      }

      .cls-17 {
        fill: #a03631;
      }

      .cls-18 {
        fill: #e3f2ec;
      }

      .cls-19 {
        fill: #cf4841;
      }

      .cls-20 {
        fill: #cae8dd;
      }

      .cls-21 {
        fill: #db7c6b;
      }
    </style>
  </defs>
  <g>
    <g>
      <path class="cls-1" d="M437,79.42s.39,36.98-16.54,49c6.89,2.23,14.23,3.45,21.86,3.45h0v-55.07l-5.32,2.62Z"/>
      <path class="cls-18" d="M447.63,79.42l-5.32-2.62v55.07h0c7.63,0,14.97-1.22,21.86-3.45-16.94-12.02-16.54-49-16.54-49Z"/>
    </g>
    <g>
      <g>
        <path class="cls-14" d="M442.32,73.4c-3,0-5.45,2.7-5.45,6.02,0,7.35,4.08,13.28,4.26,13.53l1.19,1.7,1.19-1.7c.17-.25,4.26-6.18,4.26-13.53,0-3.32-2.44-6.02-5.45-6.02Z"/>
        <g>
          <path class="cls-15" d="M442.32,74.85c-2.2,0-4,2.05-4,4.57,0,4.87,1.98,9.17,3.15,11.3l.84,1.53.84-1.53c1.18-2.13,3.15-6.43,3.15-11.3,0-2.52-1.79-4.57-4-4.57Z"/>
          <path class="cls-16" d="M442.32,88.11c.99-2.16,2.07-5.28,2.07-8.69,0-1.46-.93-2.64-2.07-2.64s-2.07,1.18-2.07,2.64c0,3.41,1.08,6.53,2.07,8.69Z"/>
        </g>
      </g>
      <g>
        <g>
          <polygon class="cls-8" points="447.18 74.04 437.45 74.04 438.49 70.39 446.14 70.39 447.18 74.04"/>
          <g>
            <polygon class="cls-3" points="446.14 70.39 443.71 70.39 444.14 74.04 447.18 74.04 446.14 70.39"/>
            <polygon class="cls-12" points="439.28 70.39 438.38 74.04 441.23 74.04 441.43 70.39 439.28 70.39"/>
          </g>
        </g>
        <g>
          <path class="cls-19" d="M434.94,51.61s-12,2.97-8.09,23.74c0,0,1.56-9.19,9.51-7.24l-1.42-16.51Z"/>
          <path class="cls-21" d="M435.08,53.18l-.14-1.57s-12,2.97-8.09,23.74c0,0,.18-1.05.72-2.36-1.59-14.04,4.83-18.55,7.5-19.81Z"/>
          <path class="cls-17" d="M432.88,67.98c1-.2,2.15-.19,3.49.14l-1.42-16.51s-2.32.57-4.58,2.98c.83,5.37,1.74,9.93,2.52,13.4Z"/>
        </g>
        <g>
          <path class="cls-19" d="M449.69,51.61s12,2.97,8.09,23.74c0,0-1.56-9.19-9.51-7.24l1.42-16.51Z"/>
          <path class="cls-21" d="M449.55,53.18l.14-1.57s12,2.97,8.09,23.74c0,0-.18-1.05-.72-2.36,1.59-14.04-4.83-18.55-7.5-19.81Z"/>
          <path class="cls-17" d="M451.75,67.98c-1-.2-2.15-.19-3.49.14l1.42-16.51s2.32.57,4.58,2.98c-.83,5.37-1.74,9.93-2.52,13.4Z"/>
          <path class="cls-19" d="M435.08,53.18l-.14-1.57s-2.32.57-4.58,2.98c.12.75.23,1.49.35,2.21,1.55-2.04,3.27-3.1,4.37-3.62h0Z"/>
          <path class="cls-19" d="M449.69,51.61l-.14,1.57h0c1.1.51,2.82,1.58,4.37,3.62.12-.72.24-1.46.35-2.21-2.27-2.4-4.58-2.98-4.58-2.98Z"/>
        </g>
        <g>
          <path class="cls-13" d="M442.32,0s-10.89,17.37-10.89,35.63,4.52,32.67,4.52,32.67h12.73s4.52-14.42,4.52-32.67S442.32,0,442.32,0Z"/>
          <g>
            <path class="cls-2" d="M436.94,68.3h3.68s-1.2-14.42-1.2-32.67S442.32,0,442.32,0c0,0-9.19,17.37-9.19,35.63s3.82,32.67,3.82,32.67Z"/>
            <path class="cls-11" d="M442.32,0s3.43,17.37,3.43,35.63-1.43,32.67-1.43,32.67h4.36s4.52-14.42,4.52-32.67S442.32,0,442.32,0Z"/>
          </g>
        </g>
        <g>
          <rect class="cls-12" x="435.95" y="68.3" width="12.73" height="3.08"/>
          <rect class="cls-10" x="444.32" y="68.3" width="4.36" height="3.08"/>
          <rect class="cls-5" x="436.94" y="68.3" width="3.69" height="3.08"/>
        </g>
        <g>
          <path class="cls-19" d="M443.71,61.39c0,6.69-1.4,15.33-1.4,15.33,0,0-1.4-8.64-1.4-15.33s.63-9.78,1.4-9.78,1.4,3.09,1.4,9.78Z"/>
          <path class="cls-17" d="M442.32,51.61v25.11s1.4-8.64,1.4-15.33-.63-9.78-1.4-9.78Z"/>
        </g>
        <g>
          <path class="cls-19" d="M442.32,0s-3.27,5.22-6.23,12.95h12.47C445.59,5.22,442.32,0,442.32,0Z"/>
          <path class="cls-17" d="M442.32,0s1.03,5.22,1.97,12.95h4.27c-2.96-7.73-6.23-12.95-6.23-12.95Z"/>
          <path class="cls-21" d="M440.66,12.95C441.44,5.22,442.32,0,442.32,0c0,0-2.76,5.22-5.26,12.95h3.6Z"/>
        </g>
        <g>
          <circle class="cls-6" cx="442.32" cy="27.79" r="7.53"/>
          <path class="cls-5" d="M434.78,27.79c0,3.13,1.91,5.82,4.63,6.95.02-4.89.25-9.71.57-14.11-3.02.98-5.2,3.82-5.2,7.16Z"/>
          <path class="cls-10" d="M445.09,20.79c.36,4.29.62,8.96.66,13.71,2.43-1.25,4.1-3.78,4.1-6.7,0-3.18-1.97-5.9-4.76-7Z"/>
          <circle class="cls-10" cx="442.31" cy="27.79" r="6.04" transform="translate(313.64 451.89) rotate(-76.72)"/>
          <path class="cls-6" d="M439.44,33.1c.05-3.73.22-7.38.44-10.83-2.12.94-3.6,3.06-3.6,5.52,0,2.29,1.28,4.28,3.16,5.31Z"/>
          <path class="cls-4" d="M445.22,22.5c.25,3.28.43,6.74.5,10.28,1.59-1.09,2.63-2.91,2.63-4.98,0-2.28-1.26-4.26-3.13-5.29Z"/>
          <g>
            <circle class="cls-7" cx="442.32" cy="27.79" r="5.42"/>
            <g>
              <path class="cls-20" d="M445.68,32.05c1.11-.88,1.87-2.19,2.03-3.68l-5.97-5.97c-1.49.16-2.8.92-3.68,2.03l7.62,7.62Z"/>
              <path class="cls-20" d="M442.96,33.18c.65-.08,1.27-.27,1.83-.56l-7.3-7.3c-.29.56-.48,1.18-.56,1.83l6.03,6.03Z"/>
            </g>
          </g>
        </g>
      </g>
    </g>
  </g>
  <g>
    <path class="cls-9" d="M71.03,93.73c-24.23,0-43.88,19.64-43.88,43.88h87.75c0-24.23-19.64-43.88-43.88-43.88Z"/>
    <path class="cls-9" d="M158.71,85.15c-28.9,0-52.32,23.42-52.32,52.32h104.64c0-28.9-23.42-52.32-52.32-52.32Z"/>
    <path class="cls-1" d="M109.07,105.92c-17.5,0-31.69,14.19-31.69,31.69h63.38c0-17.5-14.19-31.69-31.69-31.69Z"/>
    <path class="cls-1" d="M21.15,116.46c-11.68,0-21.15,9.47-21.15,21.15h42.3c0-11.68-9.47-21.15-21.15-21.15Z"/>
    <path class="cls-9" d="M339.58,102.46c-19.41,0-35.15,15.73-35.15,35.15h70.29c0-19.41-15.73-35.15-35.15-35.15Z"/>
    <path class="cls-9" d="M449.66,114.2c-12.85,0-23.26,10.42-23.26,23.26h46.53c0-12.85-10.42-23.26-23.26-23.26Z"/>
    <path class="cls-1" d="M399.72,92.89c-24.7,0-44.72,20.02-44.72,44.72h89.44c0-24.7-20.02-44.72-44.72-44.72Z"/>
    <path class="cls-1" d="M299.43,107.48c-16.64,0-30.12,13.49-30.12,30.12h60.25c0-16.64-13.49-30.12-30.12-30.12Z"/>
    <g>
      <path class="cls-1" d="M234.38,92.59c-24.86,0-45.01,20.15-45.01,45.01h90.03c0-24.86-20.15-45.01-45.01-45.01Z"/>
      <path class="cls-9" d="M234.38,92.59c-.16,0-.31.02-.47.02v44.99h45.49c0-24.86-20.15-45.01-45.01-45.01Z"/>
    </g>
  </g>
</svg>