<?xml version="1.0" encoding="UTF-8"?>
<svg id="Layer_1" width="120" data-name="Layer 1" xmlns="http://www.w3.org/2000/svg" viewBox="0 0 168.76 185.55">
  <defs>
    <style>
      .cls-1, .cls-2 {
        fill: #315996;
      }

      .cls-3 {
        fill: #fff;
        font-family: 'Open Sans';
        font-size: 47px;
        font-weight: 700;
      }

      .cls-2 {
        font-family: 'Open Sans';
        font-size: 17px;
        font-weight: 600;
      }

      .cls-4 {
        fill: #ebb542;
      }
    </style>
  </defs>
  <g>
    <g>
      <path class="cls-1" d="M116.32,84.25c-1.66,0-3-1.34-3-3V11.34c0-2.95-2.72-5.34-6.07-5.34H37.42c-1.66,0-3-1.34-3-3S35.76,0,37.42,0h69.83C113.91,0,119.32,5.09,119.32,11.34v69.91c0,1.66-1.34,3-3,3Z"/>
      <path class="cls-1" d="M63.19,145.71H12.07C5.41,145.71,0,140.62,0,134.37V37.42C0,35.76,1.34,34.42,3,34.42s3,1.34,3,3v96.95c0,2.95,2.72,5.34,6.07,5.34h51.13c1.66,0,3,1.34,3,3s-1.34,3-3,3Z"/>
      <path class="cls-1" d="M28.35,40.42H3c-1.21,0-2.31-.73-2.77-1.85-.46-1.12-.21-2.41.65-3.27L35.3.88c.86-.86,2.14-1.12,3.27-.65,1.12.46,1.85,1.56,1.85,2.77v26.08c0,6.25-5.41,11.34-12.07,11.34ZM10.24,34.42h18.11c3.34,0,6.07-2.4,6.07-5.34V10.24l-24.18,24.18Z"/>
      <path class="cls-1" d="M93.4,64.12H29.47c-1.66,0-3-1.34-3-3s1.34-3,3-3h63.93c1.66,0,3,1.34,3,3s-1.34,3-3,3Z"/>
      <path class="cls-1" d="M93.4,81.1H29.47c-1.66,0-3-1.34-3-3s1.34-3,3-3h63.93c1.66,0,3,1.34,3,3s-1.34,3-3,3Z"/>
      <path class="cls-1" d="M69.96,98.08H29.47c-1.66,0-3-1.34-3-3s1.34-3,3-3h40.49c1.66,0,3,1.34,3,3s-1.34,3-3,3Z"/>
    </g>
    <g>
      <path class="cls-1" d="M105.21,162.6c-7.72,0-15.13-2.37-21.44-6.86-8.07-5.73-13.42-14.26-15.07-24.02-1.65-9.76.6-19.58,6.33-27.64,6.94-9.76,18.24-15.59,30.23-15.59,7.71,0,15.13,2.37,21.43,6.85,8.07,5.73,13.42,14.27,15.07,24.02,1.65,9.76-.6,19.58-6.33,27.65-6.94,9.76-18.24,15.59-30.23,15.59ZM105.26,94.49c-10.05,0-19.53,4.88-25.34,13.07-4.8,6.76-6.69,14.99-5.31,23.17,1.38,8.18,5.87,15.33,12.63,20.13,5.29,3.76,11.5,5.75,17.96,5.75,10.05,0,19.52-4.88,25.34-13.07,4.81-6.76,6.69-14.99,5.31-23.17s-5.87-15.33-12.63-20.13c-5.29-3.76-11.5-5.74-17.96-5.74Z"/>
      <path class="cls-1" d="M165.76,170.83c-.6,0-1.21-.18-1.74-.55l-31.45-22.35c-1.35-.96-1.67-2.83-.71-4.18.96-1.35,2.83-1.67,4.18-.71l31.45,22.35c1.35.96,1.67,2.83.71,4.18-.58.82-1.51,1.26-2.45,1.26Z"/>
    </g>
  </g>
  <circle class="cls-4" cx="105.24" cy="125.54" r="31.22"/>
  <text class="cls-3" transform="translate(98.14 142.47)"><tspan x="0" y="0">!</tspan></text>
  <text class="cls-2" transform="translate(.93 180.75)"><tspan x="0" y="0">No Data Found</tspan></text>
</svg>