<?xml version="1.0" encoding="UTF-8"?>
<svg id="Layer_1" data-name="Layer 1" xmlns="http://www.w3.org/2000/svg" viewBox="0 0 17.64 24">
  <defs>
    <style>
      .cls-1 {
        fill: #b8baba;
        fill-rule: evenodd;
      }
    </style>
  </defs>
  <path class="cls-1" d="M0,21.51v-9.88c0-1.38,1.12-2.49,2.49-2.49h.05v-3.63C2.55,2.46,5.01,0,8.04,0h1.56c3.03,0,5.49,2.46,5.49,5.49v3.63h.05c1.38,0,2.49,1.12,2.49,2.49v9.88c0,1.38-1.12,2.49-2.49,2.49H2.49c-1.38,0-2.49-1.12-2.49-2.49ZM9.77,19.32v-2.06c.11-.07.21-.15.31-.25.7-.7.7-1.83,0-2.53-.7-.7-1.83-.7-2.53,0-.7.7-.7,1.83,0,2.53.1.1.2.18.31.25v2.06c0,.48.39.87.87.87h.17c.48,0,.87-.39.87-.87ZM13.01,9.13v-3.38c0-2.03-1.65-3.67-3.67-3.67h-1.04c-2.03,0-3.67,1.64-3.67,3.67v3.38h8.39Z"/>
</svg>