<?xml version="1.0" encoding="UTF-8"?>
<svg id="Layer_1" data-name="Layer 1" xmlns="http://www.w3.org/2000/svg" viewBox="0 0 200 200">
  <defs>
    <style>
      .cls-1 {
        stroke-width: 2.87px;
      }

      .cls-1, .cls-2 {
        fill: none;
        stroke: #fff;
        stroke-linecap: round;
        stroke-linejoin: round;
      }

      .cls-2 {
        stroke-width: 4.31px;
      }

      .cls-3 {
        fill: #3cbd9f;
      }
    </style>
  </defs>
  <circle class="cls-3" cx="100" cy="100" r="100"/>
  <g>
    <g>
      <g>
        <path class="cls-1" d="M47.34,117.85c0,5.28,3.88,9.56,8.68,9.56s8.68-4.28,8.68-9.56-3.88-9.56-8.68-9.56-8.68,4.28-8.68,9.56Z"/>
        <path class="cls-1" d="M75.26,152.42v-8.98c0-5.12-4.07-9.28-9.1-9.28h-20.31c-5.02,0-9.1,4.15-9.1,9.28v8.98"/>
      </g>
      <g>
        <path class="cls-1" d="M135.31,117.85c0,5.28,3.88,9.56,8.68,9.56s8.68-4.28,8.68-9.56-3.88-9.56-8.68-9.56-8.68,4.28-8.68,9.56Z"/>
        <path class="cls-1" d="M163.24,152.42v-8.98c0-5.12-4.07-9.28-9.1-9.28h-20.31c-5.02,0-9.1,4.15-9.1,9.28v8.98"/>
      </g>
      <g>
        <ellipse class="cls-1" cx="100" cy="43.19" rx="8.68" ry="9.56"/>
        <path class="cls-1" d="M119.25,77.6v-8.81c0-5.12-4.07-9.28-9.1-9.28h-20.31c-5.02,0-9.1,4.15-9.1,9.28v8.81"/>
      </g>
      <g>
        <path class="cls-1" d="M71.86,159.01c8.32,4.68,17.92,7.35,28.14,7.35s19.54-2.59,27.78-7.15"/>
        <path class="cls-1" d="M124.02,56.65c19.75,9.09,33.47,29.07,33.47,52.23"/>
        <path class="cls-1" d="M42.51,108.89c0-23.17,13.71-43.14,33.47-52.23"/>
      </g>
    </g>
    <g>
      <path class="cls-1" d="M82.53,88.53c10.03-10.03,26.29-10.03,36.32,0,10.03,10.03,10.03,26.28,0,36.31-8.58,8.58-21.71,9.81-31.61,3.72l-11.06,2.63,2.63-11.06c-6.09-9.9-4.86-23.02,3.72-31.6Z"/>
      <g>
        <line class="cls-2" x1="108.27" y1="106.69" x2="108.27" y2="106.69"/>
        <line class="cls-2" x1="100.69" y1="106.69" x2="100.69" y2="106.69"/>
        <line class="cls-2" x1="93.11" y1="106.69" x2="93.11" y2="106.69"/>
      </g>
    </g>
  </g>
</svg>