<?xml version="1.0" encoding="UTF-8"?>
<svg id="Layer_1" data-name="Layer 1" xmlns="http://www.w3.org/2000/svg" viewBox="0 0 200 200">
  <defs>
    <style>
      .cls-1 {
        fill: #315996;
      }

      .cls-2 {
        fill: none;
        stroke: #fff;
        stroke-linecap: round;
        stroke-linejoin: round;
        stroke-width: 2.78px;
      }
    </style>
  </defs>
  <circle class="cls-1" cx="100" cy="100" r="100"/>
  <g>
    <g>
      <line class="cls-2" x1="94.46" y1="51.96" x2="94.46" y2="33.48"/>
      <line class="cls-2" x1="116.63" y1="74.13" x2="135.11" y2="74.13"/>
      <line class="cls-2" x1="109.32" y1="59.35" x2="124.02" y2="44.57"/>
      <line class="cls-2" x1="72.28" y1="74.13" x2="53.81" y2="74.13"/>
      <line class="cls-2" x1="79.6" y1="59.35" x2="64.89" y2="44.57"/>
    </g>
    <path class="cls-2" d="M101.85,103.7v-29.56c0-4.18-3.7-7.39-7.39-7.39s-7.39,3.31-7.39,7.39v62.82-3.7s0-11.09-3.7-18.48c-2.03-4.06-9.11-10.38-14.78-7.39-6.54,3.44,1.36,13.8,3.7,18.48,3.7,7.39,0,40.65,29.56,40.65"/>
    <path class="cls-2" d="M101.85,74.13c0-4.18-3.7-7.39-7.39-7.39s-7.39,3.31-7.39,7.39"/>
    <path class="cls-2" d="M101.85,111.09v-7.39c0-4.08,3.7-7.39,7.39-7.39s7.39,3.21,7.39,7.39v11.09"/>
    <path class="cls-2" d="M116.63,107.39c0-4.08,3.7-7.39,7.39-7.39s7.39,3.21,7.39,7.39v11.09"/>
    <path class="cls-2" d="M131.41,111.09c0-4.08,3.7-7.39,7.39-7.39s7.39,3.21,7.39,7.39v25.87c0,14.78-8.65,29.56-25.87,29.56h-18.48"/>
  </g>
</svg>