<?xml version="1.0" encoding="UTF-8"?>
<svg id="Layer_1" data-name="Layer 1" xmlns="http://www.w3.org/2000/svg" viewBox="0 0 200 200">
  <defs>
    <style>
      .cls-1 {
        fill: none;
        stroke: #fff;
        stroke-linecap: round;
        stroke-linejoin: round;
        stroke-width: 3.09px;
      }

      .cls-2 {
        fill: #cf2037;
      }
    </style>
  </defs>
  <circle class="cls-2" cx="100" cy="100" r="100"/>
  <g>
    <g>
      <path class="cls-1" d="M56.13,168.02s2.28-31.37,1.07-38.79c-1.21-7.42-11.39-27.79-11.39-27.79-3.86-6.97-6.12-17.04-5.48-24.88,2.43-29.88,23.03-40.73,36.55-43.34,9.76-1.88,28.88-2.12,42,2.8h0c13.84,5.2,24.1,18.82,27.95,32.91.81,2.96,2.55,9.52,1.48,12.26,0,0-2.25,5.7-.53,8.24l11.02,16.35c2.26,3.35.45,7.92-3.49,8.81l-4.88,1.1c-1.64.37-2.81,1.83-2.81,3.52v13.99c0,5.35-4.33,9.69-9.67,9.69h-22.19c-9.26,0-16.35-5.1-20.73-13.27"/>
      <line class="cls-1" x1="118.73" y1="143.4" x2="118.73" y2="168.02"/>
    </g>
    <path class="cls-1" d="M119.68,83.37c0-1.71-.17-3.38-.49-4.99l7.33-5.51c-1.49-4.59-3.93-8.76-7.09-12.26l-8.43,3.6c-2.5-2.19-5.42-3.91-8.64-5l-1.1-9.1c-2.28-.48-4.65-.74-7.08-.74s-4.8.26-7.08.74l-1.1,9.1c-3.22,1.09-6.14,2.8-8.64,5l-8.43-3.6c-3.16,3.5-5.6,7.67-7.09,12.26l7.33,5.51c-.32,1.62-.49,3.28-.49,4.99s.17,3.38.49,4.99l-7.33,5.51c1.49,4.59,3.93,8.76,7.09,12.26l8.43-3.6c2.5,2.2,5.42,3.91,8.64,5l1.1,9.1c2.28.48,4.65.74,7.08.74s4.79-.26,7.08-.74l1.1-9.1c3.22-1.09,6.14-2.8,8.64-5l8.43,3.6c3.16-3.5,5.6-7.67,7.09-12.26l-7.33-5.51c.32-1.62.49-3.28.49-4.99ZM94.19,96.13c-7.04,0-12.75-5.71-12.75-12.75s5.71-12.75,12.75-12.75,12.75,5.71,12.75,12.75-5.71,12.75-12.75,12.75Z"/>
  </g>
</svg>